<svg id="svg" version="1.1" xmlns="http://www.w3.org/2000/svg" xmlns:xlink="http://www.w3.org/1999/xlink" width="400" height="98.76543209876543" viewBox="0, 0, 400,98.76543209876543"><g id="svgg"><path id="path0" d="M45.917 21.936 C 24.643 25.016,14.605 49.145,27.515 66.167 C 32.280 72.450,40.644 76.812,47.958 76.830 L 49.333 76.833 49.333 71.167 L 49.333 65.500 48.324 65.500 C 46.953 65.500,44.861 65.035,43.253 64.374 C 38.681 62.492,34.616 57.843,33.673 53.417 C 33.555 52.867,33.394 52.154,33.314 51.833 C 32.583 48.901,33.528 44.404,35.657 40.689 C 38.595 35.564,46.577 31.962,52.000 33.314 C 52.321 33.394,53.033 33.554,53.583 33.670 C 59.624 34.944,64.757 40.978,65.528 47.708 L 65.714 49.333 71.357 49.333 L 77.000 49.333 77.000 48.092 C 77.000 47.409,76.933 46.490,76.850 46.050 C 76.768 45.610,76.610 44.725,76.498 44.083 C 74.880 34.771,67.543 26.381,58.278 23.248 C 54.843 22.086,49.094 21.476,45.917 21.936 " stroke="none" fill="#fafafb" fill-rule="evenodd"></path><path id="path1" d="M15.375 0.120 C 14.985 0.156,14.667 0.257,14.667 0.343 C 14.667 0.429,14.367 0.500,14.000 0.500 C 13.633 0.500,13.333 0.575,13.333 0.667 C 13.333 0.758,13.108 0.833,12.833 0.833 C 12.558 0.833,12.333 0.908,12.333 1.000 C 12.333 1.092,12.183 1.167,12.000 1.167 C 11.817 1.167,11.667 1.242,11.667 1.333 C 11.667 1.425,11.517 1.500,11.333 1.500 C 11.150 1.500,11.000 1.575,11.000 1.667 C 11.000 1.758,10.850 1.833,10.667 1.833 C 10.483 1.833,10.333 1.908,10.333 2.000 C 10.333 2.092,10.183 2.167,10.000 2.167 C 9.817 2.167,9.667 2.242,9.667 2.333 C 9.667 2.425,9.512 2.500,9.323 2.500 C 9.135 2.500,9.027 2.575,9.083 2.667 C 9.140 2.758,9.069 2.833,8.927 2.833 C 8.784 2.833,8.667 2.908,8.667 3.000 C 8.667 3.092,8.533 3.167,8.370 3.167 C 8.207 3.167,7.965 3.317,7.833 3.500 C 7.701 3.683,7.536 3.833,7.467 3.833 C 7.308 3.833,4.167 6.926,4.167 7.083 C 4.167 7.147,3.942 7.410,3.667 7.667 C 3.392 7.924,3.167 8.237,3.167 8.363 C 3.167 8.490,3.017 8.701,2.833 8.833 C 2.650 8.965,2.500 9.207,2.500 9.370 C 2.500 9.533,2.425 9.667,2.333 9.667 C 2.242 9.667,2.167 9.817,2.167 10.000 C 2.167 10.183,2.092 10.333,2.000 10.333 C 1.908 10.333,1.833 10.483,1.833 10.667 C 1.833 10.850,1.758 11.000,1.667 11.000 C 1.575 11.000,1.500 11.098,1.500 11.217 C 1.500 11.523,1.108 12.330,0.958 12.332 C 0.890 12.333,0.833 12.558,0.833 12.833 C 0.833 13.108,0.758 13.333,0.667 13.333 C 0.575 13.333,0.500 13.627,0.500 13.986 C 0.500 14.360,0.411 14.669,0.292 14.708 C -0.015 14.810,-0.015 83.856,0.292 83.958 C 0.406 83.997,0.500 84.280,0.500 84.587 C 0.500 84.895,0.575 85.193,0.667 85.250 C 0.758 85.307,0.833 85.465,0.833 85.601 C 0.833 85.738,0.983 86.160,1.167 86.539 C 1.350 86.919,1.500 87.328,1.500 87.448 C 1.500 87.568,1.575 87.667,1.667 87.667 C 1.758 87.667,1.833 87.817,1.833 88.000 C 1.833 88.183,1.908 88.333,2.000 88.333 C 2.092 88.333,2.167 88.483,2.167 88.667 C 2.167 88.850,2.242 89.000,2.333 89.000 C 2.425 89.000,2.500 89.101,2.500 89.224 C 2.500 89.347,2.650 89.584,2.833 89.750 C 3.017 89.916,3.167 90.155,3.167 90.282 C 3.167 90.408,3.335 90.704,3.542 90.939 C 4.250 91.747,7.002 94.500,7.101 94.500 C 7.155 94.500,7.410 94.725,7.667 95.000 C 7.924 95.275,8.254 95.500,8.400 95.500 C 8.547 95.500,8.667 95.575,8.667 95.667 C 8.667 95.758,8.784 95.833,8.927 95.833 C 9.069 95.833,9.140 95.908,9.083 96.000 C 9.027 96.092,9.135 96.167,9.323 96.167 C 9.512 96.167,9.667 96.242,9.667 96.333 C 9.667 96.425,9.764 96.500,9.883 96.500 C 10.190 96.500,10.997 96.892,10.999 97.042 C 10.999 97.110,11.150 97.167,11.333 97.167 C 11.517 97.167,11.667 97.242,11.667 97.333 C 11.667 97.425,11.817 97.500,12.000 97.500 C 12.183 97.500,12.333 97.575,12.333 97.667 C 12.333 97.758,12.600 97.833,12.927 97.833 C 13.280 97.833,13.478 97.901,13.417 98.000 C 13.355 98.100,13.577 98.167,13.976 98.167 C 14.358 98.167,14.668 98.255,14.708 98.375 C 14.804 98.661,83.948 98.684,84.131 98.398 C 84.196 98.296,84.475 98.168,84.750 98.112 C 85.025 98.057,85.494 97.963,85.792 97.904 C 86.090 97.844,86.333 97.729,86.333 97.648 C 86.333 97.566,86.483 97.500,86.667 97.500 C 86.850 97.500,87.000 97.425,87.000 97.333 C 87.000 97.242,87.150 97.167,87.333 97.167 C 87.517 97.167,87.667 97.092,87.667 97.000 C 87.667 96.908,87.817 96.833,88.000 96.833 C 88.183 96.833,88.333 96.758,88.333 96.667 C 88.333 96.575,88.483 96.500,88.667 96.500 C 88.850 96.500,89.000 96.425,89.000 96.333 C 89.000 96.242,89.098 96.167,89.219 96.167 C 89.339 96.167,89.583 96.035,89.760 95.875 C 89.938 95.715,90.290 95.477,90.542 95.347 C 90.794 95.217,91.000 95.048,91.000 94.972 C 91.000 94.896,91.105 94.833,91.233 94.833 C 91.485 94.833,94.667 91.803,94.667 91.562 C 94.667 91.482,94.892 91.203,95.167 90.944 C 95.442 90.684,95.667 90.366,95.667 90.236 C 95.667 90.106,95.742 90.000,95.833 90.000 C 95.925 90.000,96.000 89.883,96.000 89.740 C 96.000 89.597,96.075 89.527,96.167 89.583 C 96.258 89.640,96.333 89.532,96.333 89.343 C 96.333 89.154,96.408 89.000,96.500 89.000 C 96.592 89.000,96.667 88.850,96.667 88.667 C 96.667 88.483,96.742 88.333,96.833 88.333 C 96.925 88.333,97.000 88.183,97.000 88.000 C 97.000 87.817,97.075 87.667,97.167 87.667 C 97.258 87.667,97.333 87.517,97.333 87.333 C 97.333 87.150,97.413 87.000,97.510 87.000 C 97.607 87.000,97.644 86.931,97.592 86.847 C 97.540 86.762,97.610 86.580,97.748 86.442 C 97.887 86.304,98.000 85.998,98.000 85.762 C 98.000 85.526,98.075 85.333,98.167 85.333 C 98.258 85.333,98.333 85.033,98.333 84.667 C 98.333 84.300,98.396 84.000,98.473 84.000 C 98.550 84.000,98.623 83.729,98.635 83.397 C 98.648 83.066,98.734 82.703,98.826 82.592 C 99.062 82.308,99.064 16.361,98.828 16.078 C 98.735 15.964,98.648 15.601,98.635 15.269 C 98.623 14.938,98.550 14.667,98.473 14.667 C 98.396 14.667,98.333 14.409,98.333 14.093 C 98.333 13.778,98.258 13.473,98.167 13.417 C 98.075 13.360,97.998 13.149,97.995 12.948 C 97.992 12.748,97.882 12.441,97.750 12.267 C 97.618 12.093,97.550 11.887,97.599 11.809 C 97.647 11.731,97.607 11.667,97.510 11.667 C 97.413 11.667,97.333 11.517,97.333 11.333 C 97.333 11.150,97.258 11.000,97.167 11.000 C 97.075 11.000,97.000 10.850,97.000 10.667 C 97.000 10.483,96.925 10.333,96.833 10.333 C 96.742 10.333,96.667 10.183,96.667 10.000 C 96.667 9.817,96.592 9.667,96.500 9.667 C 96.408 9.667,96.333 9.512,96.333 9.323 C 96.333 9.135,96.258 9.027,96.167 9.083 C 96.075 9.140,96.000 9.069,96.000 8.927 C 96.000 8.784,95.925 8.667,95.833 8.667 C 95.742 8.667,95.667 8.561,95.667 8.431 C 95.667 8.301,95.442 7.983,95.167 7.723 C 94.892 7.463,94.667 7.187,94.667 7.109 C 94.667 6.930,91.818 4.167,91.634 4.167 C 91.558 4.167,91.262 3.942,90.974 3.667 C 90.686 3.392,90.384 3.167,90.302 3.167 C 90.220 3.167,89.992 3.017,89.795 2.833 C 89.598 2.650,89.339 2.500,89.219 2.500 C 89.098 2.500,89.000 2.425,89.000 2.333 C 89.000 2.242,88.850 2.167,88.667 2.167 C 88.483 2.167,88.333 2.092,88.333 2.000 C 88.333 1.908,88.183 1.833,88.000 1.833 C 87.817 1.833,87.667 1.758,87.667 1.667 C 87.667 1.575,87.517 1.500,87.333 1.500 C 87.150 1.500,87.000 1.425,87.000 1.333 C 87.000 1.242,86.850 1.167,86.667 1.167 C 86.483 1.167,86.333 1.092,86.333 1.000 C 86.333 0.908,86.150 0.833,85.927 0.833 C 85.703 0.833,85.473 0.758,85.417 0.667 C 85.360 0.575,85.062 0.500,84.754 0.500 C 84.446 0.500,84.163 0.406,84.125 0.292 C 84.059 0.094,17.457 -0.072,15.375 0.120 M54.750 21.926 C 60.908 22.997,68.098 27.450,71.498 32.299 C 71.865 32.822,72.461 33.662,72.824 34.167 C 73.187 34.671,73.487 35.171,73.492 35.278 C 73.496 35.385,73.556 35.497,73.625 35.528 C 73.805 35.608,74.500 36.988,74.500 37.266 C 74.500 37.395,74.557 37.500,74.626 37.500 C 74.695 37.500,74.852 37.744,74.973 38.042 C 75.095 38.340,75.273 38.771,75.370 39.000 C 75.719 39.833,75.815 40.102,76.139 41.167 C 76.876 43.586,77.055 44.791,77.071 47.417 L 77.083 49.583 71.436 49.627 C 64.977 49.677,65.421 49.791,65.263 48.048 C 64.910 44.152,62.589 39.531,59.949 37.466 C 59.564 37.166,59.063 36.751,58.835 36.543 C 58.607 36.336,58.368 36.167,58.305 36.167 C 58.242 36.167,58.091 36.071,57.970 35.953 C 57.106 35.116,53.444 33.856,50.792 33.484 C 44.987 32.670,37.756 36.696,35.244 42.143 C 34.921 42.843,34.584 43.547,34.495 43.706 C 34.406 43.865,34.333 44.142,34.333 44.321 C 34.333 44.500,34.258 44.693,34.167 44.750 C 34.075 44.807,34.000 45.069,34.000 45.333 C 34.000 45.598,33.935 45.854,33.857 45.902 C 33.676 46.014,33.452 47.911,33.452 49.333 C 33.452 50.756,33.676 52.652,33.857 52.764 C 33.935 52.813,34.000 53.069,34.000 53.333 C 34.000 53.598,34.075 53.860,34.167 53.917 C 34.258 53.973,34.333 54.166,34.333 54.345 C 34.333 54.525,34.406 54.801,34.495 54.961 C 34.584 55.120,34.924 55.831,35.252 56.541 C 37.506 61.426,42.731 64.744,49.167 65.376 L 49.583 65.417 49.627 71.196 L 49.671 76.976 49.313 77.090 C 48.274 77.420,43.298 76.761,40.931 75.981 C 38.775 75.270,33.933 72.890,33.500 72.329 C 33.454 72.270,32.854 71.803,32.167 71.292 C 28.724 68.735,24.301 62.803,23.289 59.388 C 23.239 59.220,23.008 58.558,22.775 57.917 C 21.458 54.287,21.234 46.521,22.321 42.167 C 23.621 36.958,28.259 30.026,32.250 27.329 C 32.708 27.019,33.195 26.656,33.330 26.523 C 37.071 22.842,47.343 20.638,54.750 21.926 M135.807 30.915 C 135.762 30.960,135.243 31.007,134.654 31.018 C 134.065 31.030,133.482 31.121,133.358 31.220 C 133.235 31.320,132.915 31.385,132.648 31.365 C 132.382 31.344,131.989 31.442,131.777 31.581 C 131.564 31.720,131.342 31.786,131.282 31.727 C 131.223 31.668,131.073 31.703,130.949 31.806 C 130.825 31.909,130.580 32.017,130.404 32.047 C 129.979 32.118,128.833 32.676,128.833 32.812 C 128.833 32.870,128.608 33.018,128.332 33.140 C 128.057 33.262,127.874 33.431,127.926 33.514 C 128.007 33.646,127.746 33.741,127.622 33.625 C 127.521 33.531,125.333 35.844,125.333 36.043 C 125.333 36.162,125.183 36.368,125.000 36.500 C 124.817 36.632,124.667 36.874,124.667 37.037 C 124.667 37.200,124.592 37.333,124.500 37.333 C 124.408 37.333,124.333 37.483,124.333 37.667 C 124.333 37.850,124.258 38.000,124.167 38.000 C 124.075 38.000,124.000 38.150,124.000 38.333 C 124.000 38.517,123.925 38.667,123.833 38.667 C 123.742 38.667,123.667 38.817,123.667 39.000 C 123.667 39.183,123.592 39.333,123.500 39.333 C 123.408 39.333,123.333 39.558,123.333 39.833 C 123.333 40.108,123.258 40.333,123.167 40.333 C 123.075 40.333,123.000 40.558,123.000 40.833 C 123.000 41.108,122.925 41.333,122.833 41.333 C 122.742 41.333,122.667 41.633,122.667 42.000 C 122.667 42.367,122.592 42.667,122.500 42.667 C 122.403 42.667,122.333 43.222,122.333 44.000 C 122.333 44.778,122.264 45.333,122.167 45.333 C 122.058 45.333,122.000 47.580,122.000 51.740 C 122.000 55.832,122.060 58.184,122.167 58.250 C 122.258 58.307,122.333 58.949,122.333 59.677 C 122.333 60.404,122.401 61.000,122.483 61.000 C 122.566 61.000,122.675 61.319,122.725 61.708 C 122.908 63.109,123.039 63.667,123.185 63.667 C 123.267 63.667,123.333 63.892,123.333 64.167 C 123.333 64.442,123.390 64.667,123.458 64.668 C 123.608 64.670,124.000 65.477,124.000 65.783 C 124.000 65.902,124.075 66.000,124.167 66.000 C 124.258 66.000,124.333 66.098,124.333 66.219 C 124.333 66.339,124.483 66.598,124.667 66.795 C 124.850 66.992,125.000 67.199,125.000 67.256 C 125.000 67.313,125.300 67.648,125.667 68.000 C 126.033 68.352,126.333 68.727,126.333 68.832 C 126.333 69.073,126.751 69.500,126.987 69.500 C 127.084 69.500,127.258 69.650,127.372 69.833 C 127.487 70.017,127.679 70.167,127.800 70.167 C 127.921 70.167,127.973 70.242,127.917 70.333 C 127.860 70.425,127.968 70.500,128.157 70.500 C 128.346 70.500,128.500 70.575,128.500 70.667 C 128.500 70.758,128.617 70.833,128.760 70.833 C 128.903 70.833,128.973 70.908,128.917 71.000 C 128.860 71.092,128.932 71.167,129.076 71.167 C 129.315 71.167,129.964 71.464,130.167 71.667 C 130.212 71.712,130.438 71.776,130.667 71.808 C 130.896 71.839,131.108 71.933,131.139 72.016 C 131.169 72.099,131.413 72.167,131.681 72.167 C 131.948 72.167,132.167 72.242,132.167 72.333 C 132.167 72.425,132.537 72.500,132.990 72.500 C 133.443 72.500,133.860 72.575,133.917 72.667 C 133.980 72.769,135.366 72.833,137.520 72.833 C 139.811 72.833,140.984 72.776,140.917 72.667 C 140.853 72.563,141.165 72.500,141.740 72.500 C 142.250 72.500,142.667 72.425,142.667 72.333 C 142.667 72.242,142.892 72.167,143.167 72.167 C 143.442 72.167,143.667 72.092,143.667 72.000 C 143.667 71.908,143.896 71.833,144.177 71.833 C 144.474 71.833,144.643 71.764,144.583 71.667 C 144.525 71.572,144.665 71.500,144.907 71.500 C 145.141 71.500,145.333 71.425,145.333 71.333 C 145.333 71.242,145.467 71.167,145.630 71.167 C 145.793 71.167,146.035 71.017,146.167 70.833 C 146.299 70.650,146.510 70.500,146.637 70.500 C 146.763 70.500,147.065 70.294,147.308 70.042 C 147.551 69.790,147.948 69.481,148.190 69.357 C 148.432 69.232,148.732 68.932,148.857 68.690 C 148.981 68.448,149.290 68.051,149.542 67.808 C 149.794 67.565,150.000 67.318,150.000 67.259 C 150.000 67.201,150.147 66.995,150.328 66.801 C 150.508 66.608,150.621 66.394,150.579 66.327 C 150.538 66.260,150.615 66.112,150.752 65.998 C 150.888 65.885,151.000 65.689,151.000 65.563 C 151.000 65.437,151.075 65.333,151.167 65.333 C 151.258 65.333,151.333 65.150,151.333 64.927 C 151.333 64.703,151.408 64.473,151.500 64.417 C 151.592 64.360,151.667 64.168,151.667 63.990 C 151.667 63.812,151.746 63.667,151.843 63.667 C 151.940 63.667,151.981 63.604,151.933 63.527 C 151.846 63.386,152.254 61.816,152.510 61.309 C 152.586 61.158,152.664 60.502,152.683 59.850 C 152.702 59.199,152.777 58.667,152.850 58.667 C 153.052 58.667,153.024 45.023,152.821 44.643 C 152.727 44.469,152.630 43.971,152.605 43.538 C 152.579 43.105,152.475 42.552,152.373 42.310 C 152.272 42.067,152.228 41.720,152.275 41.537 C 152.323 41.354,152.281 41.154,152.181 41.092 C 152.082 41.031,152.000 40.837,152.000 40.662 C 152.000 40.487,151.849 40.074,151.664 39.746 C 151.479 39.417,151.307 39.009,151.281 38.840 C 151.256 38.671,151.151 38.431,151.048 38.308 C 150.946 38.184,150.874 38.030,150.889 37.964 C 150.904 37.898,150.785 37.691,150.625 37.503 C 150.465 37.316,150.333 37.068,150.333 36.952 C 150.333 36.835,150.183 36.632,150.000 36.500 C 149.817 36.368,149.667 36.174,149.667 36.069 C 149.667 35.816,147.916 34.000,147.671 34.000 C 147.566 34.000,147.527 33.925,147.583 33.833 C 147.640 33.742,147.548 33.667,147.380 33.667 C 147.211 33.667,146.965 33.517,146.833 33.333 C 146.701 33.150,146.460 33.000,146.298 33.000 C 146.136 33.000,145.909 32.850,145.795 32.667 C 145.680 32.483,145.459 32.333,145.303 32.333 C 145.147 32.333,144.970 32.253,144.910 32.155 C 144.849 32.057,144.697 32.017,144.571 32.065 C 144.446 32.113,144.234 32.043,144.100 31.910 C 143.966 31.776,143.669 31.667,143.438 31.667 C 143.208 31.667,142.980 31.603,142.932 31.526 C 142.884 31.448,142.612 31.378,142.328 31.370 C 142.043 31.362,141.719 31.279,141.608 31.187 C 141.497 31.095,140.871 31.034,140.219 31.051 C 139.566 31.069,139.066 31.027,139.109 30.958 C 139.193 30.823,135.942 30.780,135.807 30.915 M310.325 30.894 C 310.274 30.946,309.787 31.002,309.241 31.018 C 308.696 31.034,308.063 31.124,307.833 31.217 C 307.604 31.311,307.345 31.370,307.256 31.349 C 307.021 31.292,305.349 31.840,305.245 32.008 C 305.196 32.087,305.046 32.110,304.911 32.058 C 304.777 32.007,304.667 32.047,304.667 32.149 C 304.667 32.250,304.517 32.333,304.333 32.333 C 304.150 32.333,304.000 32.408,304.000 32.500 C 304.000 32.592,303.850 32.667,303.667 32.667 C 303.483 32.667,303.333 32.742,303.333 32.833 C 303.333 32.925,303.235 33.000,303.115 33.000 C 302.995 33.000,302.735 33.150,302.538 33.333 C 302.342 33.517,302.115 33.667,302.035 33.667 C 301.843 33.667,300.167 35.427,300.167 35.628 C 300.167 35.714,299.942 36.019,299.667 36.307 C 299.392 36.595,299.167 36.943,299.167 37.082 C 299.167 37.220,299.092 37.333,299.000 37.333 C 298.908 37.333,298.833 37.483,298.833 37.667 C 298.833 37.850,298.758 38.000,298.667 38.000 C 298.575 38.000,298.500 38.098,298.500 38.217 C 298.500 38.523,298.108 39.330,297.958 39.332 C 297.890 39.333,297.833 39.558,297.833 39.833 C 297.833 40.108,297.758 40.333,297.667 40.333 C 297.575 40.333,297.500 40.633,297.500 41.000 C 297.500 41.367,297.425 41.667,297.333 41.667 C 297.242 41.667,297.167 41.967,297.167 42.333 C 297.167 42.700,297.102 43.000,297.022 43.000 C 296.942 43.000,296.863 43.694,296.846 44.542 C 296.829 45.390,296.744 46.155,296.658 46.242 C 296.437 46.463,296.446 57.553,296.667 57.417 C 296.774 57.351,296.833 57.915,296.833 58.990 C 296.833 59.997,296.900 60.667,297.000 60.667 C 297.092 60.667,297.167 61.000,297.167 61.407 C 297.167 61.814,297.242 62.193,297.333 62.250 C 297.425 62.307,297.500 62.574,297.500 62.843 C 297.500 63.113,297.575 63.333,297.667 63.333 C 297.758 63.333,297.833 63.552,297.833 63.819 C 297.833 64.087,297.901 64.331,297.984 64.361 C 298.067 64.392,298.161 64.604,298.192 64.833 C 298.224 65.063,298.344 65.350,298.460 65.472 C 298.575 65.594,298.620 65.774,298.559 65.873 C 298.494 65.979,298.527 66.003,298.641 65.933 C 298.755 65.862,298.833 65.920,298.833 66.073 C 298.833 66.216,298.908 66.333,299.000 66.333 C 299.092 66.333,299.167 66.488,299.167 66.677 C 299.167 66.865,299.242 66.973,299.333 66.917 C 299.425 66.860,299.500 66.934,299.500 67.081 C 299.500 67.228,299.688 67.536,299.917 67.765 C 300.146 67.994,300.333 68.253,300.333 68.341 C 300.333 68.428,300.458 68.500,300.611 68.500 C 300.764 68.500,300.844 68.545,300.790 68.599 C 300.680 68.709,302.413 70.500,302.630 70.500 C 302.874 70.500,303.664 70.913,303.665 71.042 C 303.666 71.110,303.784 71.167,303.927 71.167 C 304.069 71.167,304.140 71.242,304.083 71.333 C 304.023 71.431,304.193 71.500,304.490 71.500 C 304.771 71.500,305.000 71.575,305.000 71.667 C 305.000 71.758,305.150 71.833,305.333 71.833 C 305.517 71.833,305.667 71.908,305.667 72.000 C 305.667 72.092,305.967 72.167,306.333 72.167 C 306.700 72.167,307.000 72.242,307.000 72.333 C 307.000 72.425,307.342 72.500,307.760 72.500 C 308.224 72.500,308.480 72.565,308.417 72.667 C 308.282 72.885,315.205 72.895,315.425 72.676 C 315.512 72.589,315.940 72.500,316.375 72.478 C 316.810 72.456,317.167 72.377,317.167 72.302 C 317.167 72.228,317.385 72.167,317.653 72.167 C 317.920 72.167,318.164 72.092,318.194 72.001 C 318.225 71.911,318.456 71.819,318.708 71.798 C 318.960 71.778,319.167 71.702,319.167 71.630 C 319.167 71.559,319.317 71.500,319.500 71.500 C 319.683 71.500,319.833 71.425,319.833 71.333 C 319.833 71.242,319.983 71.167,320.167 71.167 C 320.350 71.167,320.500 71.097,320.500 71.011 C 320.500 70.926,320.652 70.807,320.839 70.748 C 321.025 70.689,321.357 70.461,321.577 70.241 C 321.797 70.021,322.073 69.820,322.190 69.795 C 322.501 69.729,322.810 69.437,322.723 69.292 C 322.681 69.223,322.768 69.167,322.917 69.167 C 323.065 69.167,323.140 69.092,323.083 69.000 C 323.027 68.908,323.065 68.833,323.169 68.833 C 323.410 68.833,323.833 68.413,323.833 68.173 C 323.833 68.072,324.040 67.780,324.292 67.525 C 324.838 66.973,325.167 66.432,325.167 66.086 C 325.167 65.947,325.223 65.833,325.292 65.832 C 325.441 65.830,325.833 65.023,325.833 64.717 C 325.833 64.598,325.895 64.500,325.970 64.500 C 326.175 64.500,326.667 62.807,326.667 62.101 C 326.667 61.759,326.729 61.519,326.805 61.566 C 326.881 61.613,326.960 61.224,326.981 60.701 C 327.002 60.178,327.087 59.726,327.170 59.697 C 327.387 59.620,327.387 44.220,327.170 44.085 C 327.076 44.028,327.000 43.610,327.000 43.157 C 327.000 42.704,326.925 42.333,326.833 42.333 C 326.742 42.333,326.667 42.046,326.667 41.694 C 326.667 41.343,326.611 41.000,326.544 40.933 C 326.476 40.865,326.419 40.721,326.417 40.613 C 326.412 40.340,325.792 38.435,325.675 38.333 C 325.622 38.287,325.399 37.894,325.180 37.458 C 324.960 37.023,324.718 36.667,324.640 36.667 C 324.563 36.667,324.500 36.565,324.500 36.440 C 324.500 36.122,321.740 33.333,321.425 33.333 C 321.283 33.333,321.167 33.258,321.167 33.167 C 321.167 33.075,321.050 33.000,320.907 33.000 C 320.751 33.000,320.695 32.922,320.768 32.805 C 320.848 32.675,320.798 32.645,320.615 32.715 C 320.466 32.772,320.244 32.729,320.123 32.618 C 319.742 32.268,319.183 32.000,318.836 32.000 C 318.651 32.000,318.500 31.925,318.500 31.833 C 318.500 31.742,318.275 31.667,318.000 31.667 C 317.725 31.667,317.500 31.585,317.500 31.484 C 317.500 31.371,317.253 31.331,316.842 31.378 C 316.395 31.430,316.158 31.384,316.101 31.235 C 316.046 31.093,315.704 31.013,315.133 31.009 C 314.647 31.005,313.387 30.956,312.333 30.900 C 311.279 30.844,310.375 30.841,310.325 30.894 M348.149 30.903 C 348.093 30.960,347.568 31.037,346.982 31.073 C 345.577 31.158,344.513 31.344,344.403 31.522 C 344.354 31.602,344.167 31.667,343.988 31.667 C 343.624 31.667,342.218 32.275,341.833 32.599 C 341.696 32.715,341.546 32.810,341.500 32.811 C 341.185 32.815,340.662 33.156,340.138 33.699 C 339.802 34.048,339.408 34.333,339.263 34.333 C 339.118 34.333,339.000 34.458,339.000 34.611 C 339.000 34.764,338.954 34.842,338.897 34.786 C 338.766 34.655,338.333 35.079,338.333 35.338 C 338.333 35.445,338.108 35.743,337.833 36.000 C 337.558 36.257,337.333 36.570,337.333 36.697 C 337.333 36.823,337.183 37.035,337.000 37.167 C 336.817 37.299,336.667 37.540,336.667 37.703 C 336.667 37.867,336.592 38.000,336.500 38.000 C 336.408 38.000,336.333 38.150,336.333 38.333 C 336.333 38.517,336.258 38.667,336.167 38.667 C 336.075 38.667,336.000 38.817,336.000 39.000 C 336.000 39.183,335.925 39.333,335.833 39.333 C 335.742 39.333,335.667 39.554,335.667 39.823 C 335.667 40.093,335.592 40.360,335.500 40.417 C 335.408 40.473,335.333 40.703,335.333 40.927 C 335.333 41.150,335.258 41.333,335.167 41.333 C 335.075 41.333,335.000 41.708,335.000 42.167 C 335.000 42.625,334.925 43.000,334.833 43.000 C 334.739 43.000,334.667 43.472,334.667 44.083 C 334.667 44.715,334.595 45.167,334.495 45.167 C 334.380 45.167,334.328 47.387,334.339 51.917 C 334.348 55.989,334.416 58.667,334.511 58.667 C 334.596 58.667,334.667 59.150,334.667 59.740 C 334.667 60.331,334.742 60.860,334.833 60.917 C 334.925 60.973,335.000 61.315,335.000 61.677 C 335.000 62.038,335.075 62.333,335.167 62.333 C 335.258 62.333,335.333 62.558,335.333 62.833 C 335.333 63.108,335.408 63.333,335.500 63.333 C 335.592 63.333,335.667 63.558,335.667 63.833 C 335.667 64.108,335.742 64.333,335.833 64.333 C 335.925 64.333,336.000 64.483,336.000 64.667 C 336.000 64.850,336.075 65.000,336.167 65.000 C 336.258 65.000,336.333 65.150,336.333 65.333 C 336.333 65.517,336.408 65.667,336.500 65.667 C 336.592 65.667,336.667 65.817,336.667 66.000 C 336.667 66.183,336.723 66.333,336.793 66.333 C 336.862 66.333,337.018 66.559,337.140 66.834 C 337.262 67.110,337.419 67.300,337.489 67.257 C 337.559 67.213,337.721 67.380,337.850 67.628 C 338.077 68.065,340.067 70.167,340.254 70.167 C 340.305 70.167,340.508 70.317,340.705 70.500 C 340.902 70.683,341.161 70.833,341.281 70.833 C 341.402 70.833,341.500 70.908,341.500 71.000 C 341.500 71.092,341.650 71.167,341.833 71.167 C 342.017 71.167,342.167 71.242,342.167 71.333 C 342.167 71.425,342.277 71.500,342.412 71.500 C 342.546 71.500,342.924 71.650,343.250 71.833 C 343.576 72.017,344.066 72.167,344.338 72.167 C 344.611 72.167,344.833 72.242,344.833 72.333 C 344.833 72.425,345.133 72.500,345.500 72.500 C 345.867 72.500,346.167 72.575,346.167 72.667 C 346.167 72.772,347.417 72.833,349.583 72.833 C 351.750 72.833,353.000 72.772,353.000 72.667 C 353.000 72.574,353.448 72.500,354.010 72.500 C 354.641 72.500,354.981 72.437,354.917 72.333 C 354.854 72.232,355.109 72.167,355.573 72.167 C 355.991 72.167,356.333 72.092,356.333 72.000 C 356.333 71.908,356.558 71.833,356.833 71.833 C 357.108 71.833,357.333 71.758,357.333 71.667 C 357.333 71.575,357.558 71.500,357.833 71.500 C 358.108 71.500,358.333 71.425,358.333 71.333 C 358.333 71.242,358.558 71.167,358.833 71.167 C 359.108 71.167,359.333 71.092,359.333 71.000 C 359.333 70.908,359.483 70.833,359.667 70.833 C 359.850 70.833,360.000 70.763,360.000 70.678 C 360.000 70.592,360.206 70.498,360.458 70.469 C 360.874 70.422,360.918 70.351,360.935 69.713 C 360.945 69.326,360.888 69.049,360.810 69.098 C 360.731 69.147,360.667 68.999,360.667 68.770 C 360.667 68.541,360.592 68.307,360.500 68.250 C 360.408 68.193,360.333 67.964,360.333 67.740 C 360.333 67.516,360.258 67.333,360.167 67.333 C 360.075 67.333,360.000 67.108,360.000 66.833 C 360.000 66.558,359.925 66.333,359.833 66.333 C 359.742 66.333,359.667 66.108,359.667 65.833 C 359.667 65.558,359.592 65.333,359.500 65.333 C 359.408 65.333,359.333 65.108,359.333 64.833 C 359.333 64.558,359.258 64.333,359.167 64.333 C 359.075 64.333,359.000 64.183,359.000 64.000 C 359.000 63.722,358.889 63.667,358.333 63.667 C 357.967 63.667,357.667 63.742,357.667 63.833 C 357.667 63.925,357.442 64.000,357.167 64.000 C 356.892 64.000,356.667 64.075,356.667 64.167 C 356.667 64.258,356.442 64.333,356.167 64.333 C 355.892 64.333,355.667 64.408,355.667 64.500 C 355.667 64.592,355.484 64.667,355.260 64.667 C 355.036 64.667,354.807 64.742,354.750 64.833 C 354.693 64.925,354.468 65.000,354.250 65.000 C 354.032 65.000,353.807 65.075,353.750 65.167 C 353.693 65.258,353.314 65.333,352.907 65.333 C 352.500 65.333,352.167 65.408,352.167 65.500 C 352.167 65.602,351.389 65.667,350.167 65.667 C 348.944 65.667,348.167 65.602,348.167 65.500 C 348.167 65.408,347.942 65.333,347.667 65.333 C 347.392 65.333,347.167 65.258,347.167 65.167 C 347.167 65.075,346.958 65.000,346.703 65.000 C 346.431 65.000,346.141 64.862,346.000 64.667 C 345.868 64.483,345.661 64.333,345.541 64.333 C 345.244 64.333,344.167 63.238,344.167 62.936 C 344.167 62.803,344.097 62.669,344.013 62.639 C 343.928 62.608,343.834 62.471,343.804 62.333 C 343.774 62.196,343.637 61.971,343.500 61.833 C 343.363 61.696,343.224 61.396,343.192 61.167 C 343.161 60.938,343.067 60.725,342.984 60.694 C 342.901 60.664,342.833 60.473,342.833 60.269 C 342.833 60.066,342.761 59.827,342.672 59.739 C 342.584 59.650,342.497 59.148,342.480 58.622 C 342.463 58.097,342.385 57.667,342.308 57.667 C 342.230 57.667,342.167 55.004,342.167 51.750 C 342.167 47.917,342.225 45.833,342.333 45.833 C 342.425 45.833,342.500 45.458,342.500 45.000 C 342.500 44.542,342.559 44.167,342.630 44.167 C 342.702 44.167,342.777 43.965,342.798 43.718 C 342.843 43.177,343.504 41.667,343.696 41.667 C 343.772 41.667,343.833 41.517,343.833 41.333 C 343.833 41.150,343.908 41.000,344.000 41.000 C 344.092 41.000,344.167 40.883,344.167 40.740 C 344.167 40.597,344.223 40.514,344.292 40.556 C 344.360 40.598,344.513 40.527,344.632 40.399 C 344.750 40.271,344.801 40.167,344.745 40.167 C 344.689 40.167,344.755 40.054,344.893 39.917 C 345.030 39.779,345.223 39.667,345.321 39.667 C 345.420 39.667,345.500 39.592,345.500 39.500 C 345.500 39.408,345.650 39.333,345.833 39.333 C 346.017 39.333,346.167 39.258,346.167 39.167 C 346.167 39.075,346.310 39.000,346.486 39.000 C 346.662 39.000,346.834 38.916,346.868 38.813 C 346.902 38.709,347.134 38.625,347.382 38.625 C 347.630 38.625,347.833 38.559,347.833 38.479 C 347.833 38.273,352.789 38.293,352.917 38.500 C 352.973 38.592,353.236 38.667,353.500 38.667 C 353.764 38.667,354.027 38.742,354.083 38.833 C 354.140 38.925,354.369 39.000,354.593 39.000 C 354.817 39.000,355.000 39.075,355.000 39.167 C 355.000 39.258,355.056 39.324,355.125 39.314 C 355.572 39.243,356.170 39.359,356.083 39.500 C 356.023 39.597,356.193 39.667,356.490 39.667 C 356.771 39.667,357.000 39.742,357.000 39.833 C 357.000 39.925,357.150 40.000,357.333 40.000 C 357.517 40.000,357.667 40.070,357.667 40.156 C 357.667 40.241,357.892 40.305,358.167 40.297 C 358.620 40.284,358.667 40.230,358.667 39.725 C 358.667 39.418,358.742 39.167,358.833 39.167 C 358.925 39.167,359.000 38.979,359.000 38.750 C 359.000 38.521,359.059 38.333,359.130 38.333 C 359.202 38.333,359.277 38.130,359.298 37.882 C 359.318 37.634,359.410 37.357,359.501 37.266 C 359.592 37.175,359.667 36.927,359.667 36.717 C 359.667 36.506,359.742 36.333,359.833 36.333 C 359.925 36.333,360.000 36.108,360.000 35.833 C 360.000 35.558,360.075 35.333,360.167 35.333 C 360.258 35.333,360.333 35.146,360.333 34.917 C 360.333 34.688,360.408 34.500,360.500 34.500 C 360.755 34.500,360.698 33.508,360.429 33.238 C 360.298 33.107,360.073 33.000,359.929 33.000 C 359.785 33.000,359.667 32.925,359.667 32.833 C 359.667 32.742,359.442 32.667,359.167 32.667 C 358.892 32.667,358.667 32.608,358.667 32.536 C 358.667 32.465,358.460 32.389,358.208 32.368 C 357.956 32.347,357.725 32.256,357.694 32.165 C 357.664 32.074,357.420 32.000,357.153 32.000 C 356.885 32.000,356.667 31.932,356.667 31.850 C 356.667 31.767,356.402 31.700,356.079 31.700 C 355.756 31.700,355.394 31.619,355.275 31.521 C 355.156 31.422,354.786 31.352,354.454 31.364 C 354.121 31.377,353.739 31.296,353.605 31.185 C 353.471 31.073,352.999 30.987,352.556 30.992 C 352.113 30.998,350.962 30.956,350.000 30.900 C 349.037 30.844,348.205 30.845,348.149 30.903 M161.833 51.750 L 161.833 72.167 165.417 72.167 L 169.000 72.167 169.000 61.000 C 169.000 53.667,168.943 49.833,168.833 49.833 C 168.729 49.833,168.667 48.778,168.667 47.000 C 168.667 45.222,168.729 44.167,168.833 44.167 C 168.925 44.167,169.000 44.265,169.000 44.385 C 169.000 44.505,169.131 44.749,169.292 44.927 C 169.452 45.105,169.690 45.456,169.820 45.708 C 169.950 45.960,170.119 46.167,170.195 46.167 C 170.271 46.167,170.333 46.317,170.333 46.500 C 170.333 46.683,170.408 46.833,170.500 46.833 C 170.592 46.833,170.667 46.988,170.667 47.177 C 170.667 47.365,170.742 47.473,170.833 47.417 C 170.925 47.360,171.000 47.431,171.000 47.573 C 171.000 47.716,171.075 47.833,171.167 47.833 C 171.258 47.833,171.333 47.967,171.333 48.130 C 171.333 48.293,171.483 48.535,171.667 48.667 C 171.850 48.799,172.000 49.034,172.000 49.190 C 172.000 49.345,172.069 49.497,172.154 49.528 C 172.239 49.558,172.333 49.696,172.363 49.833 C 172.392 49.971,172.548 50.205,172.708 50.353 C 172.869 50.501,173.000 50.745,173.000 50.895 C 173.000 51.044,173.075 51.167,173.167 51.167 C 173.258 51.167,173.333 51.300,173.333 51.463 C 173.333 51.626,173.483 51.868,173.667 52.000 C 173.850 52.132,174.000 52.374,174.000 52.537 C 174.000 52.700,174.075 52.833,174.167 52.833 C 174.258 52.833,174.333 52.983,174.333 53.167 C 174.333 53.350,174.408 53.500,174.500 53.500 C 174.592 53.500,174.667 53.617,174.667 53.760 C 174.667 53.903,174.726 53.983,174.799 53.938 C 174.871 53.893,174.942 53.999,174.955 54.174 C 174.968 54.348,175.133 54.657,175.323 54.860 C 175.512 55.063,175.667 55.328,175.667 55.448 C 175.667 55.568,175.742 55.667,175.833 55.667 C 175.925 55.667,176.000 55.817,176.000 56.000 C 176.000 56.183,176.075 56.333,176.167 56.333 C 176.258 56.333,176.333 56.483,176.333 56.667 C 176.333 56.850,176.408 57.000,176.500 57.000 C 176.592 57.000,176.668 57.169,176.669 57.375 C 176.671 57.678,176.703 57.702,176.833 57.500 C 176.961 57.303,176.995 57.340,176.997 57.677 C 176.999 57.912,177.150 58.265,177.333 58.462 C 177.517 58.658,177.667 58.935,177.667 59.076 C 177.667 59.218,177.742 59.333,177.833 59.333 C 177.925 59.333,178.000 59.483,178.000 59.667 C 178.000 59.850,178.075 60.000,178.167 60.000 C 178.258 60.000,178.333 60.150,178.333 60.333 C 178.333 60.517,178.408 60.667,178.500 60.667 C 178.592 60.667,178.667 60.817,178.667 61.000 C 178.667 61.183,178.742 61.333,178.833 61.333 C 178.925 61.333,179.000 61.483,179.000 61.667 C 179.000 61.850,179.075 62.000,179.167 62.000 C 179.258 62.000,179.333 62.144,179.333 62.319 C 179.333 62.495,179.395 62.664,179.471 62.694 C 179.547 62.725,180.050 63.650,180.589 64.750 C 181.128 65.850,181.678 66.881,181.810 67.042 C 181.943 67.202,181.991 67.333,181.917 67.333 C 181.843 67.333,181.947 67.476,182.148 67.650 C 182.410 67.878,182.453 67.992,182.299 68.054 C 182.134 68.120,182.132 68.143,182.292 68.154 C 182.406 68.161,182.500 68.321,182.500 68.510 C 182.500 68.699,182.575 68.807,182.667 68.750 C 182.762 68.691,182.833 68.835,182.833 69.083 C 182.833 69.332,182.905 69.475,183.000 69.417 C 183.095 69.358,183.167 69.502,183.167 69.750 C 183.167 69.998,183.238 70.142,183.333 70.083 C 183.428 70.025,183.500 70.165,183.500 70.407 C 183.500 70.641,183.575 70.833,183.667 70.833 C 183.758 70.833,183.833 70.949,183.833 71.091 C 183.833 72.029,184.397 72.167,188.244 72.167 L 191.836 72.167 191.832 51.935 C 191.829 35.807,191.785 31.668,191.617 31.528 C 191.481 31.415,190.133 31.364,187.828 31.385 L 184.250 31.417 184.207 40.565 C 184.173 47.720,184.209 49.769,184.374 49.972 C 184.539 50.176,184.540 50.204,184.375 50.105 C 184.244 50.027,184.167 50.077,184.167 50.240 C 184.167 50.383,184.242 50.500,184.333 50.500 C 184.438 50.500,184.500 51.583,184.500 53.417 C 184.500 56.378,184.410 56.796,184.000 55.750 C 183.874 55.429,183.710 55.167,183.636 55.167 C 183.561 55.167,183.500 55.017,183.500 54.833 C 183.500 54.650,183.425 54.500,183.333 54.500 C 183.242 54.500,183.167 54.350,183.167 54.167 C 183.167 53.983,183.092 53.833,183.000 53.833 C 182.908 53.833,182.833 53.683,182.833 53.500 C 182.833 53.317,182.758 53.167,182.667 53.167 C 182.575 53.167,182.500 53.023,182.500 52.847 C 182.500 52.672,182.431 52.503,182.346 52.472 C 182.261 52.442,182.167 52.306,182.138 52.171 C 182.108 52.035,181.989 51.823,181.873 51.699 C 181.758 51.575,181.698 51.418,181.740 51.350 C 181.781 51.283,181.669 51.122,181.491 50.994 C 181.313 50.865,181.167 50.626,181.167 50.463 C 181.167 50.300,181.092 50.167,181.000 50.167 C 180.908 50.167,180.833 50.049,180.833 49.905 C 180.833 49.761,180.720 49.530,180.582 49.391 C 180.443 49.253,180.373 49.071,180.425 48.987 C 180.477 48.902,180.446 48.833,180.357 48.833 C 180.267 48.833,180.024 48.458,179.817 48.000 C 179.610 47.542,179.375 47.167,179.294 47.167 C 179.213 47.167,179.186 47.103,179.234 47.025 C 179.282 46.947,179.174 46.726,178.994 46.532 C 178.814 46.339,178.667 46.114,178.667 46.033 C 178.667 45.778,178.171 44.878,177.913 44.664 C 177.778 44.551,177.667 44.390,177.667 44.306 C 177.667 44.222,177.517 43.992,177.333 43.795 C 177.150 43.598,177.000 43.339,177.000 43.219 C 177.000 43.098,176.925 43.000,176.833 43.000 C 176.742 43.000,176.667 42.868,176.667 42.707 C 176.667 42.545,176.517 42.320,176.333 42.205 C 176.150 42.091,176.000 41.866,176.000 41.705 C 176.000 41.545,175.850 41.320,175.667 41.205 C 175.483 41.091,175.333 40.843,175.333 40.655 C 175.333 40.467,175.258 40.360,175.167 40.417 C 175.075 40.473,175.000 40.403,175.000 40.260 C 175.000 40.117,174.925 40.000,174.833 40.000 C 174.742 40.000,174.667 39.867,174.667 39.703 C 174.667 39.540,174.517 39.299,174.333 39.167 C 174.150 39.035,174.000 38.810,174.000 38.667 C 174.000 38.524,173.850 38.299,173.667 38.167 C 173.483 38.035,173.333 37.831,173.333 37.715 C 173.333 37.598,173.108 37.288,172.833 37.025 C 172.558 36.762,172.333 36.452,172.333 36.335 C 172.333 36.218,172.188 35.996,172.010 35.842 C 171.833 35.688,171.664 35.455,171.635 35.324 C 171.607 35.194,171.377 34.887,171.125 34.643 C 170.873 34.399,170.667 34.110,170.667 34.000 C 170.667 33.890,170.442 33.590,170.167 33.333 C 169.892 33.076,169.667 32.781,169.667 32.678 C 169.667 32.574,169.407 32.229,169.089 31.911 L 168.511 31.333 165.172 31.333 L 161.833 31.333 161.833 51.750 M202.208 31.444 C 202.043 31.510,202.000 35.748,202.000 51.847 L 202.000 72.167 214.000 72.167 L 226.000 72.167 226.000 68.583 L 226.000 65.000 217.917 65.000 L 209.833 65.000 209.833 60.167 L 209.833 55.333 216.753 55.333 L 223.673 55.333 223.628 51.625 L 223.583 47.917 216.708 47.873 L 209.833 47.830 209.833 43.415 L 209.833 39.000 217.583 39.000 L 225.333 39.000 225.333 35.167 L 225.333 31.333 213.875 31.346 C 207.573 31.354,202.323 31.397,202.208 31.444 M233.950 31.439 C 233.886 31.503,233.833 40.693,233.833 51.861 L 233.833 72.167 242.917 72.167 C 248.861 72.167,252.000 72.109,252.000 72.000 C 252.000 71.908,252.239 71.833,252.531 71.833 C 253.078 71.833,254.962 71.241,255.242 70.981 C 255.329 70.900,255.535 70.833,255.700 70.833 C 255.865 70.833,256.000 70.758,256.000 70.667 C 256.000 70.575,256.106 70.500,256.236 70.500 C 256.365 70.500,256.744 70.235,257.077 69.912 C 257.410 69.588,257.766 69.375,257.867 69.438 C 257.979 69.507,258.004 69.475,257.932 69.358 C 257.865 69.250,257.927 69.120,258.073 69.064 C 258.216 69.009,258.333 68.887,258.333 68.793 C 258.333 68.699,258.475 68.500,258.648 68.350 C 259.102 67.956,259.692 66.843,259.561 66.630 C 259.498 66.528,259.525 66.496,259.622 66.556 C 259.794 66.662,259.923 66.238,260.110 64.958 C 260.161 64.615,260.269 64.333,260.351 64.333 C 260.561 64.333,260.544 57.214,260.333 57.083 C 260.242 57.027,260.167 56.821,260.167 56.627 C 260.167 56.162,259.803 55.167,259.633 55.167 C 259.560 55.167,259.500 55.026,259.500 54.854 C 259.500 54.682,259.387 54.447,259.250 54.333 C 259.112 54.219,259.000 54.037,259.000 53.929 C 259.000 53.642,257.912 52.500,257.639 52.500 C 257.511 52.500,257.299 52.350,257.167 52.167 C 257.035 51.983,256.793 51.833,256.630 51.833 C 256.467 51.833,256.333 51.758,256.333 51.667 C 256.333 51.575,256.216 51.500,256.073 51.500 C 255.931 51.500,255.860 51.425,255.917 51.333 C 255.973 51.242,255.905 51.167,255.765 51.167 C 255.608 51.167,255.547 51.072,255.606 50.918 C 255.659 50.781,255.750 50.695,255.809 50.727 C 255.868 50.759,256.237 50.458,256.629 50.059 C 257.021 49.660,257.283 49.331,257.212 49.328 C 257.141 49.325,257.215 49.247,257.375 49.153 C 257.535 49.060,257.667 48.875,257.667 48.742 C 257.667 48.609,257.742 48.500,257.833 48.500 C 257.925 48.500,258.000 48.350,258.000 48.167 C 258.000 47.983,258.075 47.833,258.167 47.833 C 258.258 47.833,258.333 47.688,258.333 47.510 C 258.333 47.332,258.408 47.140,258.500 47.083 C 258.592 47.027,258.667 46.647,258.667 46.240 C 258.667 45.833,258.738 45.500,258.825 45.500 C 259.032 45.500,259.030 40.539,258.823 40.410 C 258.737 40.357,258.667 39.910,258.667 39.417 C 258.667 38.923,258.592 38.473,258.500 38.417 C 258.408 38.360,258.333 38.131,258.333 37.907 C 258.333 37.683,258.258 37.500,258.167 37.500 C 258.075 37.500,258.000 37.345,258.000 37.155 C 258.000 36.965,257.887 36.696,257.748 36.558 C 257.610 36.420,257.535 36.245,257.581 36.171 C 257.627 36.096,257.548 35.990,257.405 35.935 C 257.262 35.881,257.187 35.768,257.238 35.686 C 257.365 35.481,255.257 33.333,254.929 33.333 C 254.785 33.333,254.667 33.258,254.667 33.167 C 254.667 33.075,254.517 33.000,254.333 33.000 C 254.150 33.000,254.000 32.925,254.000 32.833 C 254.000 32.742,253.850 32.667,253.667 32.667 C 253.483 32.667,253.333 32.592,253.333 32.500 C 253.333 32.408,253.108 32.333,252.833 32.333 C 252.558 32.333,252.333 32.258,252.333 32.167 C 252.333 32.075,252.113 32.000,251.843 32.000 C 251.574 32.000,251.307 31.925,251.250 31.833 C 251.193 31.742,250.668 31.667,250.083 31.667 C 249.498 31.667,248.977 31.597,248.925 31.513 C 248.814 31.333,234.128 31.261,233.950 31.439 M268.619 31.437 C 268.553 31.502,268.500 40.693,268.500 51.861 L 268.500 72.167 280.503 72.167 L 292.507 72.167 292.462 68.625 L 292.417 65.083 284.376 65.040 L 276.335 64.997 276.292 48.207 L 276.250 31.417 272.494 31.368 C 270.428 31.341,268.684 31.372,268.619 31.437 M367.911 31.538 C 367.867 31.655,367.850 40.825,367.874 51.917 L 367.917 72.083 371.708 72.128 L 375.500 72.173 375.500 65.790 C 375.500 59.598,375.510 59.400,375.833 59.167 C 376.017 59.035,376.167 58.826,376.167 58.704 C 376.167 58.582,376.621 58.036,377.176 57.491 C 377.731 56.946,378.125 56.500,378.051 56.499 C 377.977 56.498,378.124 56.361,378.376 56.195 C 378.629 56.028,378.785 55.841,378.724 55.779 C 378.662 55.717,378.741 55.667,378.899 55.667 C 379.057 55.667,379.145 55.600,379.094 55.517 C 378.983 55.338,379.334 55.187,379.625 55.288 C 379.740 55.328,379.833 55.505,379.833 55.681 C 379.833 55.856,379.894 56.000,379.968 56.000 C 380.042 56.000,380.240 56.319,380.408 56.708 C 380.576 57.098,380.834 57.556,380.981 57.726 C 381.129 57.896,381.212 58.062,381.167 58.095 C 381.121 58.129,381.196 58.295,381.333 58.465 C 381.732 58.959,382.000 59.475,382.000 59.748 C 382.000 59.886,382.066 60.000,382.146 60.000 C 382.227 60.000,382.386 60.225,382.500 60.500 C 382.614 60.775,382.773 61.000,382.854 61.000 C 382.934 61.000,383.000 61.150,383.000 61.333 C 383.000 61.517,383.075 61.667,383.167 61.667 C 383.258 61.667,383.333 61.817,383.333 62.000 C 383.333 62.183,383.408 62.333,383.500 62.333 C 383.592 62.333,383.667 62.432,383.667 62.552 C 383.667 62.672,383.817 62.931,384.000 63.128 C 384.183 63.325,384.333 63.602,384.333 63.743 C 384.333 63.884,384.408 64.000,384.500 64.000 C 384.592 64.000,384.667 64.150,384.667 64.333 C 384.667 64.517,384.742 64.667,384.833 64.667 C 384.925 64.667,385.000 64.779,385.000 64.917 C 385.000 65.054,385.075 65.167,385.167 65.167 C 385.258 65.167,385.333 65.279,385.333 65.417 C 385.333 65.554,385.408 65.667,385.500 65.667 C 385.592 65.667,385.667 65.817,385.667 66.000 C 385.667 66.183,385.728 66.333,385.802 66.333 C 385.877 66.333,386.039 66.592,386.164 66.909 C 386.288 67.226,386.452 67.446,386.528 67.399 C 386.604 67.352,386.667 67.431,386.667 67.573 C 386.667 67.716,386.742 67.833,386.833 67.833 C 386.925 67.833,387.000 67.983,387.000 68.167 C 387.000 68.350,387.075 68.500,387.167 68.500 C 387.258 68.500,387.333 68.644,387.333 68.819 C 387.333 68.995,387.403 69.164,387.487 69.194 C 387.572 69.225,387.666 69.362,387.696 69.500 C 387.726 69.637,387.881 69.871,388.042 70.020 C 388.202 70.168,388.333 70.412,388.333 70.561 C 388.333 70.711,388.408 70.833,388.500 70.833 C 388.592 70.833,388.667 70.983,388.667 71.167 C 388.667 71.350,388.742 71.500,388.833 71.500 C 388.925 71.500,389.000 71.646,389.000 71.824 C 389.000 72.136,389.163 72.148,393.750 72.162 C 398.414 72.175,398.500 72.170,398.500 71.838 C 398.500 71.652,398.425 71.500,398.333 71.500 C 398.242 71.500,398.167 71.367,398.167 71.203 C 398.167 71.040,398.017 70.799,397.833 70.667 C 397.650 70.535,397.500 70.293,397.500 70.130 C 397.500 69.967,397.425 69.833,397.333 69.833 C 397.242 69.833,397.167 69.735,397.167 69.615 C 397.167 69.495,397.017 69.235,396.833 69.038 C 396.650 68.842,396.500 68.602,396.500 68.507 C 396.500 68.411,396.425 68.333,396.333 68.333 C 396.242 68.333,396.167 68.200,396.167 68.037 C 396.167 67.874,396.017 67.632,395.833 67.500 C 395.650 67.368,395.500 67.126,395.500 66.963 C 395.500 66.800,395.425 66.667,395.333 66.667 C 395.242 66.667,395.167 66.512,395.167 66.323 C 395.167 66.135,395.092 66.027,395.000 66.083 C 394.908 66.140,394.833 66.069,394.833 65.927 C 394.833 65.784,394.758 65.667,394.667 65.667 C 394.575 65.667,394.500 65.517,394.500 65.333 C 394.500 65.150,394.425 65.000,394.333 65.000 C 394.242 65.000,394.167 64.867,394.167 64.703 C 394.167 64.540,394.017 64.299,393.833 64.167 C 393.650 64.035,393.500 63.793,393.500 63.630 C 393.500 63.467,393.425 63.333,393.333 63.333 C 393.242 63.333,393.167 63.184,393.167 63.001 C 393.167 62.819,393.024 62.580,392.850 62.472 C 392.676 62.363,392.571 62.175,392.618 62.054 C 392.664 61.932,392.619 61.833,392.518 61.833 C 392.416 61.833,392.333 61.721,392.333 61.583 C 392.333 61.446,392.254 61.333,392.157 61.333 C 392.060 61.333,392.024 61.263,392.077 61.177 C 392.130 61.090,392.028 60.884,391.851 60.718 C 391.673 60.552,391.477 60.218,391.416 59.975 C 391.355 59.732,391.180 59.394,391.028 59.225 C 390.875 59.055,390.569 58.560,390.349 58.125 C 390.128 57.690,389.884 57.333,389.807 57.333 C 389.730 57.333,389.667 57.253,389.667 57.155 C 389.667 57.057,389.442 56.650,389.167 56.250 C 388.892 55.850,388.667 55.443,388.667 55.345 C 388.667 55.247,388.592 55.167,388.500 55.167 C 388.408 55.167,388.333 55.068,388.333 54.948 C 388.333 54.828,388.183 54.569,388.000 54.372 C 387.817 54.175,387.667 53.898,387.667 53.757 C 387.667 53.616,387.592 53.500,387.500 53.500 C 387.408 53.500,387.333 53.402,387.333 53.281 C 387.333 53.161,387.183 52.902,387.000 52.705 C 386.817 52.508,386.667 52.232,386.667 52.090 C 386.667 51.949,386.592 51.833,386.500 51.833 C 386.408 51.833,386.333 51.721,386.333 51.583 C 386.333 51.446,386.258 51.333,386.167 51.333 C 386.075 51.333,386.000 51.221,386.000 51.083 C 386.000 50.946,385.925 50.833,385.833 50.833 C 385.742 50.833,385.667 50.683,385.667 50.500 C 385.667 50.317,385.592 50.167,385.500 50.167 C 385.175 50.167,385.340 49.656,385.833 49.140 C 386.108 48.853,386.333 48.546,386.333 48.459 C 386.333 48.372,386.558 48.090,386.833 47.833 C 387.108 47.576,387.333 47.276,387.333 47.167 C 387.333 47.057,387.558 46.757,387.833 46.500 C 388.108 46.243,388.333 45.930,388.333 45.803 C 388.333 45.677,388.483 45.465,388.667 45.333 C 388.850 45.201,389.000 44.976,389.000 44.833 C 389.000 44.690,389.146 44.468,389.324 44.340 C 389.503 44.211,389.614 44.049,389.571 43.980 C 389.529 43.911,389.686 43.663,389.921 43.427 C 390.156 43.192,390.294 43.000,390.226 43.000 C 390.159 43.000,390.297 42.794,390.533 42.542 C 390.769 42.290,391.008 41.933,391.063 41.750 C 391.118 41.567,391.351 41.214,391.581 40.966 C 391.812 40.718,392.000 40.399,392.000 40.257 C 392.000 40.116,392.075 40.000,392.167 40.000 C 392.258 40.000,392.333 39.887,392.333 39.750 C 392.333 39.612,392.413 39.500,392.510 39.500 C 392.607 39.500,392.645 39.433,392.595 39.352 C 392.545 39.271,392.608 39.118,392.735 39.012 C 392.863 38.906,393.014 38.635,393.070 38.410 C 393.127 38.184,393.247 38.000,393.337 38.000 C 393.426 38.000,393.500 37.850,393.500 37.667 C 393.500 37.483,393.575 37.333,393.667 37.333 C 393.758 37.333,393.833 37.183,393.833 37.000 C 393.833 36.817,393.908 36.667,394.000 36.667 C 394.092 36.667,394.167 36.551,394.167 36.410 C 394.167 36.268,394.317 35.992,394.500 35.795 C 394.683 35.598,394.833 35.339,394.833 35.219 C 394.833 35.098,394.908 35.000,395.000 35.000 C 395.092 35.000,395.167 34.850,395.167 34.667 C 395.167 34.483,395.242 34.333,395.333 34.333 C 395.425 34.333,395.500 34.183,395.500 34.000 C 395.500 33.817,395.575 33.667,395.667 33.667 C 395.758 33.667,395.833 33.517,395.833 33.333 C 395.833 33.150,395.908 33.000,396.000 33.000 C 396.092 33.000,396.167 32.850,396.167 32.667 C 396.167 32.483,396.242 32.333,396.333 32.333 C 396.425 32.333,396.500 32.113,396.500 31.844 L 396.500 31.355 392.493 31.339 C 388.296 31.322,388.000 31.371,388.000 32.071 C 388.000 32.215,387.925 32.333,387.833 32.333 C 387.742 32.333,387.667 32.447,387.667 32.586 C 387.667 32.907,387.334 33.502,386.958 33.851 C 386.798 34.000,386.667 34.245,386.667 34.395 C 386.667 34.544,386.592 34.667,386.500 34.667 C 386.408 34.667,386.333 34.817,386.333 35.000 C 386.333 35.183,386.258 35.333,386.167 35.333 C 386.075 35.333,386.000 35.472,386.000 35.641 C 386.000 35.810,385.850 36.084,385.667 36.250 C 385.483 36.416,385.333 36.653,385.333 36.776 C 385.333 36.899,385.258 37.000,385.167 37.000 C 385.075 37.000,385.000 37.133,385.000 37.297 C 385.000 37.460,384.854 37.698,384.676 37.827 C 384.497 37.955,384.386 38.117,384.429 38.186 C 384.471 38.255,384.317 38.501,384.087 38.732 C 383.856 38.963,383.667 39.251,383.667 39.372 C 383.667 39.494,383.517 39.701,383.333 39.833 C 383.150 39.965,383.000 40.190,383.000 40.333 C 383.000 40.476,382.850 40.701,382.667 40.833 C 382.483 40.965,382.333 41.190,382.333 41.333 C 382.333 41.476,382.183 41.701,382.000 41.833 C 381.817 41.965,381.667 42.173,381.667 42.294 C 381.667 42.416,381.490 42.692,381.273 42.908 C 381.057 43.125,380.713 43.571,380.510 43.901 C 380.306 44.230,380.071 44.500,379.986 44.500 C 379.902 44.500,379.833 44.618,379.833 44.763 C 379.833 44.908,379.533 45.314,379.167 45.667 C 378.800 46.019,378.500 46.392,378.500 46.495 C 378.500 46.598,378.144 47.044,377.708 47.487 C 377.273 47.929,376.899 48.372,376.878 48.470 C 376.828 48.702,375.790 49.833,375.628 49.833 C 375.559 49.833,375.483 45.690,375.460 40.625 L 375.417 31.417 371.704 31.372 C 368.825 31.337,367.974 31.374,367.911 31.538 M139.833 38.500 C 139.833 38.592,140.016 38.667,140.240 38.667 C 140.464 38.667,140.694 38.743,140.752 38.836 C 140.809 38.929,140.918 38.968,140.993 38.921 C 141.068 38.875,141.222 38.949,141.335 39.085 C 141.448 39.222,141.622 39.333,141.720 39.333 C 141.965 39.333,143.460 40.943,143.587 41.344 C 143.643 41.521,143.764 41.667,143.854 41.667 C 143.945 41.667,143.982 41.728,143.935 41.804 C 143.888 41.879,143.959 42.150,144.092 42.406 C 144.225 42.662,144.333 43.013,144.333 43.186 C 144.333 43.359,144.408 43.500,144.500 43.500 C 144.592 43.500,144.667 43.913,144.667 44.417 C 144.667 44.921,144.742 45.333,144.833 45.333 C 145.054 45.333,145.063 58.283,144.843 58.361 C 144.756 58.392,144.668 58.844,144.648 59.367 C 144.627 59.890,144.548 60.280,144.472 60.233 C 144.396 60.186,144.333 60.414,144.333 60.740 C 144.333 61.066,144.258 61.333,144.167 61.333 C 144.075 61.333,144.000 61.483,144.000 61.667 C 144.000 61.850,143.925 62.000,143.833 62.000 C 143.742 62.000,143.667 62.139,143.667 62.309 C 143.667 62.479,143.427 62.817,143.135 63.059 C 142.842 63.302,142.660 63.500,142.731 63.500 C 142.801 63.500,142.609 63.705,142.304 63.956 C 142.000 64.206,141.712 64.450,141.667 64.497 C 141.392 64.781,140.060 65.333,139.651 65.333 C 139.385 65.333,139.167 65.408,139.167 65.500 C 139.167 65.600,138.500 65.667,137.500 65.667 C 136.583 65.667,135.833 65.607,135.833 65.534 C 135.833 65.461,135.552 65.383,135.208 65.360 C 134.865 65.337,134.558 65.247,134.528 65.159 C 134.497 65.072,134.328 65.000,134.153 65.000 C 133.977 65.000,133.833 64.925,133.833 64.833 C 133.833 64.742,133.719 64.667,133.580 64.667 C 133.300 64.667,131.290 62.701,131.182 62.322 C 130.957 61.526,130.735 61.000,130.626 61.000 C 130.557 61.000,130.500 60.700,130.500 60.333 C 130.500 59.967,130.425 59.667,130.333 59.667 C 130.241 59.667,130.167 59.219,130.167 58.657 C 130.167 58.026,130.104 57.686,130.000 57.750 C 129.890 57.818,129.833 55.863,129.833 52.010 C 129.833 48.226,129.892 46.167,130.000 46.167 C 130.095 46.167,130.167 45.667,130.167 45.000 C 130.167 44.333,130.238 43.833,130.333 43.833 C 130.425 43.833,130.500 43.608,130.500 43.333 C 130.500 43.058,130.559 42.833,130.631 42.833 C 130.703 42.833,130.775 42.666,130.790 42.461 C 130.806 42.256,130.897 42.062,130.993 42.030 C 131.088 41.998,131.167 41.829,131.167 41.654 C 131.167 41.479,131.317 41.242,131.500 41.128 C 131.683 41.013,131.833 40.801,131.833 40.657 C 131.833 40.368,132.558 39.667,132.857 39.667 C 132.960 39.667,133.166 39.535,133.314 39.374 C 133.462 39.213,133.808 38.979,134.083 38.855 C 134.358 38.730,134.696 38.566,134.833 38.490 C 135.201 38.288,139.833 38.297,139.833 38.500 M314.417 38.500 C 314.360 38.592,314.461 38.667,314.641 38.667 C 315.412 38.667,317.833 40.441,317.833 41.005 C 317.833 41.105,317.920 41.133,318.026 41.067 C 318.140 40.997,318.173 41.021,318.108 41.127 C 318.047 41.226,318.091 41.409,318.207 41.535 C 318.607 41.970,318.833 42.498,318.833 42.998 C 318.833 43.274,318.908 43.500,319.000 43.500 C 319.092 43.500,319.167 43.875,319.167 44.333 C 319.167 44.792,319.243 45.167,319.337 45.167 C 319.450 45.167,319.503 47.488,319.496 52.089 C 319.490 56.457,319.427 58.975,319.326 58.912 C 319.233 58.855,319.167 59.132,319.167 59.573 C 319.167 59.991,319.092 60.333,319.000 60.333 C 318.908 60.333,318.833 60.558,318.833 60.833 C 318.833 61.108,318.758 61.333,318.667 61.333 C 318.575 61.333,318.500 61.483,318.500 61.667 C 318.500 61.850,318.425 62.000,318.333 62.000 C 318.242 62.000,318.167 62.133,318.167 62.297 C 318.167 62.460,318.021 62.698,317.842 62.827 C 317.664 62.955,317.551 63.114,317.592 63.180 C 317.706 63.365,316.733 64.333,316.433 64.333 C 316.287 64.333,316.167 64.408,316.167 64.500 C 316.167 64.592,316.017 64.667,315.833 64.667 C 315.650 64.667,315.499 64.723,315.499 64.792 C 315.497 64.993,314.640 65.333,314.133 65.333 C 313.877 65.333,313.667 65.408,313.667 65.500 C 313.667 65.600,313.000 65.667,312.000 65.667 C 311.000 65.667,310.333 65.600,310.333 65.500 C 310.333 65.408,310.086 65.333,309.783 65.333 C 309.209 65.333,308.337 65.007,308.335 64.792 C 308.334 64.723,308.219 64.667,308.080 64.667 C 307.750 64.667,306.000 62.917,306.000 62.587 C 306.000 62.447,305.925 62.333,305.833 62.333 C 305.742 62.333,305.667 62.183,305.667 62.000 C 305.667 61.817,305.592 61.667,305.500 61.667 C 305.408 61.667,305.333 61.442,305.333 61.167 C 305.333 60.892,305.258 60.667,305.167 60.667 C 305.075 60.667,305.000 60.442,305.000 60.167 C 305.000 59.892,304.925 59.667,304.833 59.667 C 304.735 59.667,304.667 59.087,304.667 58.260 C 304.667 57.486,304.592 56.807,304.500 56.750 C 304.395 56.685,304.333 54.832,304.333 51.740 C 304.333 48.580,304.393 46.833,304.500 46.833 C 304.598 46.833,304.667 46.247,304.667 45.407 C 304.667 44.498,304.727 44.018,304.833 44.083 C 304.934 44.146,305.000 43.918,305.000 43.510 C 305.000 43.138,305.075 42.833,305.167 42.833 C 305.258 42.833,305.333 42.682,305.333 42.498 C 305.333 42.123,305.621 41.549,306.001 41.168 C 306.139 41.030,306.349 40.727,306.468 40.495 C 306.586 40.264,306.905 39.976,307.176 39.856 C 307.447 39.736,307.626 39.569,307.574 39.486 C 307.523 39.402,307.597 39.333,307.740 39.333 C 307.883 39.333,308.000 39.258,308.000 39.167 C 308.000 39.075,308.150 39.000,308.333 39.000 C 308.517 39.000,308.667 38.925,308.667 38.833 C 308.667 38.742,308.892 38.667,309.167 38.667 C 309.442 38.667,309.667 38.592,309.667 38.500 C 309.667 38.397,310.587 38.333,312.093 38.333 C 313.668 38.333,314.484 38.392,314.417 38.500 M248.083 38.833 C 248.140 38.925,248.369 39.000,248.593 39.000 C 248.817 39.000,249.000 39.075,249.000 39.167 C 249.000 39.258,249.126 39.333,249.281 39.333 C 249.663 39.333,250.333 39.988,250.333 40.362 C 250.333 40.530,250.408 40.667,250.500 40.667 C 250.592 40.667,250.667 40.817,250.667 41.000 C 250.667 41.183,250.733 41.333,250.815 41.333 C 250.896 41.333,250.974 42.196,250.989 43.250 C 251.006 44.490,250.954 45.167,250.841 45.167 C 250.745 45.167,250.667 45.317,250.667 45.500 C 250.667 45.683,250.592 45.833,250.500 45.833 C 250.408 45.833,250.333 45.965,250.333 46.126 C 250.333 46.505,249.250 47.500,248.838 47.500 C 248.663 47.500,248.473 47.575,248.417 47.667 C 248.360 47.758,247.981 47.833,247.573 47.833 C 247.166 47.833,246.833 47.908,246.833 48.000 C 246.833 48.104,245.833 48.167,244.167 48.167 L 241.500 48.167 241.500 43.417 L 241.500 38.667 244.740 38.667 C 246.720 38.667,248.020 38.731,248.083 38.833 M58.833 54.149 C 58.833 58.386,58.802 58.976,58.570 59.066 C 58.227 59.197,49.866 59.193,49.375 59.062 L 49.000 58.961 49.000 54.147 L 49.000 49.333 53.917 49.333 L 58.833 49.333 58.833 54.149 M249.805 55.437 C 250.922 55.717,252.333 56.820,252.333 57.412 C 252.333 57.552,252.408 57.667,252.500 57.667 C 252.603 57.667,252.667 58.556,252.667 60.000 C 252.667 61.444,252.603 62.333,252.500 62.333 C 252.408 62.333,252.333 62.523,252.333 62.754 C 252.333 63.217,251.021 64.667,250.602 64.667 C 250.469 64.667,250.336 64.738,250.306 64.826 C 250.275 64.914,249.969 65.004,249.625 65.027 C 249.281 65.050,249.000 65.128,249.000 65.201 C 249.000 65.274,247.313 65.333,245.250 65.333 L 241.500 65.333 241.500 60.250 L 241.500 55.167 245.114 55.167 C 247.892 55.167,248.978 55.229,249.805 55.437 " stroke="none" fill="#4c5ca4" fill-rule="evenodd"></path><path id="path2" d="M49.076 49.541 C 49.031 49.659,49.014 51.816,49.039 54.336 L 49.083 58.917 53.917 58.917 L 58.750 58.917 58.750 54.167 L 58.750 49.417 53.954 49.372 C 50.180 49.338,49.141 49.374,49.076 49.541 " stroke="none" fill="#94cb6d" fill-rule="evenodd"></path><path id="path3" d="M45.532 21.808 C 45.320 21.868,47.068 21.917,49.417 21.917 C 51.765 21.917,53.513 21.868,53.302 21.808 C 53.090 21.749,51.342 21.700,49.417 21.700 C 47.492 21.700,45.743 21.749,45.532 21.808 M43.250 22.198 C 34.368 24.371,27.312 30.285,23.787 38.511 C 22.863 40.668,21.990 43.717,22.012 44.711 C 22.019 45.015,22.164 44.583,22.345 43.719 C 24.573 33.112,32.659 24.937,43.417 22.414 C 44.395 22.185,44.843 22.026,44.500 22.029 C 44.179 22.032,43.617 22.108,43.250 22.198 M55.135 22.341 C 65.962 24.785,74.686 33.636,76.483 44.000 C 76.870 46.234,77.002 46.717,76.905 45.549 C 76.588 41.751,74.487 36.488,71.919 33.061 C 70.654 31.371,70.229 30.879,68.914 29.577 C 65.019 25.720,57.619 21.912,54.218 22.014 C 53.961 22.022,54.373 22.169,55.135 22.341 M46.583 33.324 C 46.308 33.394,45.671 33.548,45.167 33.666 C 42.310 34.335,38.749 36.652,36.781 39.121 C 33.973 42.645,32.432 48.296,33.314 51.833 C 33.394 52.154,33.555 52.867,33.673 53.417 C 34.616 57.843,38.681 62.492,43.253 64.374 C 44.861 65.035,46.953 65.500,48.324 65.500 L 49.333 65.500 49.333 71.192 L 49.333 76.884 47.125 76.797 C 45.910 76.749,45.104 76.768,45.333 76.839 C 45.563 76.909,46.595 76.974,47.627 76.983 L 49.504 77.000 49.460 71.208 L 49.417 65.417 48.083 65.306 C 36.846 64.373,30.013 52.330,35.018 42.279 C 39.640 33.000,51.833 30.433,59.699 37.083 C 60.839 38.047,62.678 40.142,62.880 40.707 C 62.921 40.822,62.999 40.876,63.054 40.826 C 63.429 40.485,60.245 37.085,58.420 35.878 C 56.914 34.883,54.846 33.939,53.583 33.671 C 53.033 33.555,52.321 33.394,52.000 33.314 C 51.295 33.138,47.283 33.146,46.583 33.324 M63.193 41.102 C 63.231 41.183,63.535 41.820,63.869 42.516 C 64.543 43.922,64.904 45.056,65.256 46.869 C 65.486 48.052,65.490 48.059,65.427 47.154 C 65.300 45.300,63.956 41.468,63.289 41.056 C 63.198 41.000,63.155 41.020,63.193 41.102 M21.772 45.708 C 21.602 46.341,21.656 52.217,21.841 53.264 C 22.317 55.960,22.756 57.611,23.496 59.500 C 25.335 64.189,28.615 68.480,32.667 71.495 C 34.356 72.752,37.138 74.418,37.292 74.264 C 37.333 74.223,36.965 73.986,36.475 73.738 C 27.347 69.119,21.645 59.287,21.862 48.542 C 21.898 46.777,21.915 45.333,21.900 45.333 C 21.885 45.333,21.827 45.502,21.772 45.708 M77.033 48.042 L 77.000 49.333 71.343 49.333 L 65.687 49.333 65.618 48.749 L 65.548 48.164 65.566 48.790 L 65.583 49.417 71.296 49.461 C 75.994 49.497,77.024 49.464,77.096 49.277 C 77.144 49.152,77.157 48.533,77.124 47.900 L 77.065 46.750 77.033 48.042 M37.500 74.409 C 37.500 74.476,38.102 74.766,39.083 75.172 C 40.849 75.902,43.667 76.677,44.469 76.654 C 45.005 76.638,44.939 76.614,43.333 76.250 C 41.984 75.943,38.865 74.930,38.133 74.561 C 37.661 74.322,37.500 74.283,37.500 74.409 " stroke="none" fill="#8a96c3" fill-rule="evenodd"></path><path id="path4" d="M48.292 21.623 C 48.865 21.656,49.802 21.656,50.375 21.623 C 50.948 21.591,50.479 21.564,49.333 21.564 C 48.188 21.564,47.719 21.591,48.292 21.623 M44.583 21.833 L 43.917 21.953 44.500 21.960 C 44.821 21.964,45.271 21.907,45.500 21.833 C 46.036 21.662,45.541 21.662,44.583 21.833 M53.333 21.825 C 53.750 21.967,54.784 22.055,54.653 21.938 C 54.615 21.904,54.208 21.833,53.750 21.780 C 53.188 21.715,53.052 21.730,53.333 21.825 M42.833 22.167 C 42.503 22.272,42.486 22.300,42.750 22.300 C 42.933 22.300,43.271 22.240,43.500 22.167 C 43.830 22.061,43.847 22.033,43.583 22.033 C 43.400 22.033,43.063 22.093,42.833 22.167 M55.333 22.167 C 55.563 22.240,55.900 22.300,56.083 22.300 C 56.347 22.300,56.330 22.272,56.000 22.167 C 55.771 22.093,55.433 22.033,55.250 22.033 C 54.986 22.033,55.003 22.061,55.333 22.167 M41.000 22.675 C 40.026 23.074,40.499 23.067,41.583 22.667 C 42.042 22.498,42.267 22.361,42.083 22.364 C 41.900 22.366,41.412 22.506,41.000 22.675 M57.250 22.667 C 57.708 22.836,58.196 22.974,58.333 22.974 C 58.471 22.974,58.208 22.836,57.750 22.667 C 57.292 22.498,56.804 22.359,56.667 22.359 C 56.529 22.359,56.792 22.498,57.250 22.667 M38.868 23.445 C 38.291 23.681,37.847 23.903,37.881 23.937 C 37.941 23.997,40.009 23.204,40.153 23.067 C 40.320 22.906,39.841 23.047,38.868 23.445 M60.681 23.897 C 60.850 24.053,63.167 25.162,63.167 25.088 C 63.167 24.994,60.907 23.833,60.726 23.833 C 60.663 23.833,60.642 23.862,60.681 23.897 M36.082 24.772 C 35.056 25.313,33.156 26.545,33.231 26.620 C 33.262 26.651,33.691 26.403,34.185 26.070 C 34.679 25.737,35.515 25.246,36.042 24.980 C 36.569 24.713,37.000 24.459,37.000 24.414 C 37.000 24.291,36.975 24.301,36.082 24.772 M63.417 25.288 C 63.508 25.375,63.883 25.615,64.250 25.821 C 64.617 26.027,64.767 26.071,64.583 25.918 C 64.211 25.609,63.155 25.038,63.417 25.288 M65.000 26.228 C 65.000 26.285,65.544 26.743,66.208 27.246 C 66.873 27.749,67.754 28.437,68.167 28.775 L 68.917 29.389 68.333 28.810 C 68.012 28.492,67.225 27.831,66.583 27.341 C 65.942 26.850,65.323 26.376,65.208 26.288 C 65.094 26.199,65.000 26.172,65.000 26.228 M30.147 29.125 C 28.503 30.701,26.344 33.342,25.653 34.622 C 25.467 34.967,25.413 35.107,25.532 34.933 C 27.073 32.691,28.530 30.922,30.108 29.375 C 31.161 28.344,31.981 27.500,31.932 27.500 C 31.882 27.500,31.079 28.231,30.147 29.125 M69.856 30.431 C 70.225 30.994,71.008 31.880,71.077 31.812 C 71.112 31.777,70.800 31.374,70.384 30.916 C 69.969 30.458,69.731 30.240,69.856 30.431 M47.000 33.500 C 46.438 33.618,46.435 33.623,46.917 33.625 C 47.192 33.626,47.642 33.570,47.917 33.500 C 48.608 33.324,47.836 33.324,47.000 33.500 M50.750 33.491 C 51.264 33.631,52.443 33.716,52.319 33.604 C 52.281 33.570,51.800 33.500,51.250 33.449 C 50.592 33.388,50.421 33.402,50.750 33.491 M45.333 33.833 C 44.990 33.943,44.975 33.969,45.250 33.981 C 45.433 33.989,45.696 33.922,45.833 33.833 C 46.125 33.645,45.923 33.645,45.333 33.833 M52.833 33.833 C 52.971 33.922,53.233 33.991,53.417 33.986 L 53.750 33.977 53.417 33.833 C 52.918 33.619,52.502 33.619,52.833 33.833 M55.167 34.579 C 57.089 35.397,57.306 35.450,55.917 34.761 C 55.275 34.443,54.525 34.136,54.250 34.080 C 53.975 34.023,54.387 34.247,55.167 34.579 M43.000 34.667 C 42.679 34.842,42.492 34.986,42.583 34.986 C 42.675 34.986,43.012 34.842,43.333 34.667 C 43.654 34.491,43.842 34.347,43.750 34.347 C 43.658 34.347,43.321 34.491,43.000 34.667 M72.983 34.583 C 73.264 35.127,73.495 35.428,73.494 35.250 C 73.493 35.158,73.339 34.896,73.152 34.667 C 72.925 34.390,72.869 34.362,72.983 34.583 M24.750 36.167 C 24.518 36.625,24.365 37.000,24.411 37.000 C 24.457 37.000,24.684 36.625,24.917 36.167 C 25.149 35.708,25.301 35.333,25.256 35.333 C 25.210 35.333,24.982 35.708,24.750 36.167 M58.435 36.271 C 58.792 36.512,59.121 36.760,59.167 36.822 C 59.212 36.884,59.538 37.150,59.889 37.415 C 60.241 37.679,60.985 38.462,61.543 39.156 C 62.759 40.669,62.928 40.853,62.700 40.417 C 62.085 39.242,58.565 35.833,57.967 35.833 C 57.868 35.833,58.079 36.030,58.435 36.271 M39.150 37.055 C 38.055 37.992,36.712 39.437,36.247 40.179 C 36.157 40.323,36.344 40.135,36.662 39.762 C 37.481 38.803,38.952 37.348,39.833 36.628 C 40.246 36.291,40.539 36.012,40.484 36.007 C 40.429 36.003,39.829 36.475,39.150 37.055 M75.500 39.693 C 75.500 39.885,76.043 41.346,76.095 41.294 C 76.175 41.214,75.772 39.883,75.622 39.733 C 75.555 39.666,75.500 39.648,75.500 39.693 M22.607 41.210 C 22.457 41.605,22.339 42.038,22.346 42.172 C 22.352 42.307,22.502 42.010,22.678 41.513 C 23.061 40.437,23.001 40.181,22.607 41.210 M63.449 41.915 C 63.602 42.234,63.756 42.466,63.792 42.430 C 63.868 42.354,63.362 41.333,63.248 41.333 C 63.206 41.333,63.297 41.595,63.449 41.915 M76.190 41.667 C 76.190 41.804,76.255 42.067,76.333 42.250 C 76.424 42.460,76.477 42.491,76.477 42.333 C 76.477 42.196,76.412 41.933,76.333 41.750 C 76.243 41.540,76.190 41.509,76.190 41.667 M22.093 43.093 C 22.030 43.427,22.016 43.738,22.062 43.784 C 22.108 43.830,22.197 43.594,22.259 43.259 C 22.322 42.925,22.336 42.614,22.290 42.568 C 22.244 42.522,22.155 42.758,22.093 43.093 M34.606 43.106 C 34.448 43.437,34.355 43.744,34.400 43.789 C 34.444 43.833,34.598 43.587,34.742 43.242 C 35.082 42.429,34.979 42.325,34.606 43.106 M63.840 42.792 C 63.850 42.959,64.484 44.112,64.493 43.979 C 64.505 43.806,64.002 42.667,63.914 42.667 C 63.870 42.667,63.836 42.723,63.840 42.792 M76.528 43.083 C 76.531 43.267,76.593 43.604,76.667 43.833 L 76.800 44.250 76.805 43.833 C 76.808 43.604,76.745 43.267,76.667 43.083 L 76.523 42.750 76.528 43.083 M34.186 44.111 C 34.175 44.218,34.118 44.443,34.059 44.611 C 33.975 44.848,33.997 44.874,34.158 44.726 C 34.272 44.621,34.329 44.396,34.285 44.226 C 34.241 44.056,34.197 44.004,34.186 44.111 M64.523 44.333 C 64.523 44.471,64.588 44.733,64.667 44.917 C 64.757 45.127,64.810 45.158,64.810 45.000 C 64.810 44.862,64.745 44.600,64.667 44.417 C 64.576 44.207,64.523 44.176,64.523 44.333 M21.772 44.981 C 21.708 45.383,21.691 45.746,21.734 45.789 C 21.846 45.901,22.048 44.727,21.961 44.468 C 21.922 44.348,21.837 44.579,21.772 44.981 M76.956 45.750 C 77.005 46.300,77.073 46.781,77.106 46.819 C 77.230 46.961,77.138 45.404,77.004 45.083 C 76.920 44.882,76.901 45.146,76.956 45.750 M33.853 45.278 C 33.842 45.385,33.785 45.610,33.725 45.778 C 33.642 46.015,33.664 46.041,33.824 45.893 C 33.938 45.788,33.995 45.563,33.952 45.393 C 33.908 45.223,33.863 45.171,33.853 45.278 M64.862 45.583 C 64.859 45.767,64.921 46.067,65.000 46.250 C 65.183 46.675,65.183 46.237,65.000 45.667 C 64.893 45.332,64.866 45.315,64.862 45.583 M33.424 47.424 C 33.360 47.849,33.346 48.235,33.392 48.281 C 33.437 48.326,33.527 48.016,33.591 47.591 C 33.655 47.166,33.669 46.780,33.623 46.735 C 33.578 46.689,33.488 46.999,33.424 47.424 M65.358 48.592 C 65.345 48.963,65.423 49.357,65.533 49.467 C 65.759 49.693,76.919 49.765,77.058 49.542 C 77.100 49.473,74.536 49.417,71.359 49.417 L 65.583 49.417 65.483 48.667 L 65.383 47.917 65.358 48.592 M33.370 50.667 C 33.371 50.896,33.430 51.308,33.500 51.583 L 33.627 52.083 33.630 51.583 C 33.632 51.308,33.573 50.896,33.500 50.667 L 33.367 50.250 33.370 50.667 M21.696 52.917 C 21.690 53.100,21.748 53.550,21.824 53.917 C 21.940 54.477,21.962 54.504,21.961 54.083 C 21.960 53.500,21.712 52.404,21.696 52.917 M33.678 52.782 C 33.716 53.214,33.977 53.581,33.988 53.218 C 33.995 53.017,33.925 52.807,33.833 52.750 C 33.742 52.693,33.672 52.708,33.678 52.782 M34.012 53.948 C 34.049 54.381,34.310 54.748,34.322 54.385 C 34.328 54.184,34.258 53.973,34.167 53.917 C 34.075 53.860,34.005 53.874,34.012 53.948 M22.028 55.083 C 22.031 55.267,22.093 55.604,22.167 55.833 L 22.300 56.250 22.305 55.833 C 22.308 55.604,22.245 55.267,22.167 55.083 L 22.023 54.750 22.028 55.083 M34.340 54.958 C 34.350 55.125,34.984 56.279,34.993 56.145 C 35.005 55.973,34.502 54.833,34.414 54.833 C 34.370 54.833,34.336 54.890,34.340 54.958 M22.346 56.469 C 22.327 56.794,22.885 58.428,22.949 58.236 C 22.979 58.146,22.859 57.662,22.681 57.161 C 22.503 56.660,22.352 56.348,22.346 56.469 M36.324 58.620 C 36.870 59.437,38.254 60.905,39.219 61.690 C 39.780 62.147,39.580 61.900,38.650 60.988 C 37.862 60.216,36.935 59.246,36.591 58.833 C 36.247 58.421,36.126 58.325,36.324 58.620 M51.708 59.125 C 52.969 59.153,55.031 59.153,56.292 59.125 C 57.552 59.096,56.521 59.073,54.000 59.073 C 51.479 59.073,50.448 59.096,51.708 59.125 M25.063 63.125 C 25.474 63.936,26.928 66.000,27.088 66.000 C 27.137 66.000,26.883 65.606,26.524 65.125 C 26.165 64.644,25.630 63.819,25.336 63.292 C 24.691 62.134,24.502 62.019,25.063 63.125 M41.236 63.144 C 41.377 63.372,44.505 64.693,44.718 64.615 C 44.827 64.574,44.692 64.482,44.417 64.410 C 44.142 64.337,43.295 63.992,42.535 63.643 C 41.774 63.294,41.190 63.070,41.236 63.144 M45.014 64.727 C 45.052 64.759,45.308 64.837,45.583 64.898 C 45.948 64.980,46.016 64.964,45.833 64.841 C 45.608 64.689,44.847 64.582,45.014 64.727 M46.347 65.062 C 46.385 65.096,46.792 65.167,47.250 65.220 C 47.812 65.285,47.948 65.270,47.667 65.175 C 47.250 65.033,46.216 64.945,46.347 65.062 M49.500 71.217 L 49.583 77.083 49.627 71.344 C 49.651 68.187,49.614 65.547,49.544 65.477 C 49.474 65.407,49.454 67.990,49.500 71.217 M27.743 67.002 C 28.593 68.082,31.044 70.458,32.167 71.292 C 32.854 71.803,33.454 72.270,33.500 72.329 C 33.718 72.611,37.000 74.424,37.000 74.262 C 37.000 74.220,36.456 73.900,35.792 73.552 C 33.913 72.567,30.916 70.231,29.083 68.323 C 28.167 67.369,27.564 66.774,27.743 67.002 M39.500 75.500 C 39.637 75.589,39.862 75.662,40.000 75.662 C 40.222 75.662,40.222 75.644,40.000 75.500 C 39.862 75.411,39.637 75.338,39.500 75.338 C 39.278 75.338,39.278 75.356,39.500 75.500 M41.000 76.000 C 41.412 76.173,41.862 76.315,42.000 76.316 C 42.137 76.317,41.875 76.171,41.417 75.992 C 40.352 75.577,40.006 75.583,41.000 76.000 M42.667 76.500 C 42.896 76.573,43.233 76.633,43.417 76.633 C 43.681 76.633,43.663 76.606,43.333 76.500 C 43.104 76.427,42.767 76.367,42.583 76.367 C 42.319 76.367,42.337 76.394,42.667 76.500 M44.014 76.729 C 44.052 76.763,44.458 76.834,44.917 76.887 C 45.479 76.952,45.614 76.937,45.333 76.842 C 44.917 76.700,43.883 76.612,44.014 76.729 M47.621 77.120 C 47.917 77.157,48.442 77.158,48.788 77.122 C 49.134 77.086,48.892 77.055,48.250 77.055 C 47.608 77.054,47.325 77.083,47.621 77.120 " stroke="none" fill="#7484bb" fill-rule="evenodd"></path></g></svg>