<svg width="150" height="37" viewBox="0 0 150 37" fill="none" xmlns="http://www.w3.org/2000/svg">
<path d="M39.4354 28.7855C39.4354 32.2483 37.1957 35.0112 33.808 35.7361C33.703 35.7577 33.568 35.7144 33.5163 35.861H10.4134C8.89701 35.6494 7.62222 34.9795 6.54073 33.8947C5.47423 32.8249 4.81934 31.5667 4.60938 30.0753V6.93074C4.81101 6.81576 4.76935 6.59413 4.81434 6.42249C5.61754 3.293 8.34543 1.15168 11.5866 1.14668C18.5671 1.14001 25.546 1.13668 32.5248 1.14835C36.3209 1.15501 39.4237 4.24118 39.432 8.03056C39.447 14.9494 39.437 21.8683 39.4354 28.7855Z" fill="#4D5FA5"/>
<path d="M94.4326 19.111C95.0458 18.6844 95.549 18.1578 95.6757 17.4263C95.854 16.3948 95.8656 15.3566 95.4907 14.3501C95.1958 13.5636 94.6358 13.0353 93.8726 12.712C93.3344 12.4837 92.7678 12.3604 92.1829 12.3554C90.6565 12.3438 89.1284 12.3504 87.602 12.3321C87.272 12.3288 87.1687 12.4388 87.1721 12.7637C87.1887 13.9202 87.1787 15.0767 87.1787 16.2331C87.1787 19.4709 87.1771 22.7071 87.1821 25.9449C87.1821 26.1865 87.0604 26.4998 87.532 26.4948C89.2717 26.4731 91.0131 26.5281 92.7495 26.4548C94.0409 26.4015 95.2441 26.0182 95.9356 24.7851C97.0871 22.7337 96.4656 20.3608 94.4326 19.111ZM89.7017 16.3664C89.7017 15.8849 89.7067 15.4049 89.7 14.925C89.6983 14.725 89.74 14.5917 89.9833 14.6017C90.6748 14.6284 91.3714 14.5367 92.0579 14.6701C92.8145 14.8184 93.1828 15.2583 93.2011 16.0282C93.2061 16.2381 93.2044 16.4498 93.2011 16.6614C93.1894 17.5596 92.7478 18.0445 91.8513 18.1428C91.7563 18.1545 91.6597 18.1612 91.563 18.1545C90.9548 18.1178 90.1616 18.4128 89.795 18.0295C89.5084 17.7296 89.7383 16.9397 89.7383 16.3664H89.7017ZM93.846 22.6671C93.806 23.5569 93.2977 24.1152 92.4029 24.1668C91.613 24.2118 90.8181 24.1785 90.0249 24.1952C89.765 24.2018 89.6917 24.1002 89.6983 23.8569C89.7116 23.3353 89.7017 22.8154 89.7017 22.2938C89.7017 21.8122 89.7166 21.329 89.6966 20.8474C89.6833 20.5541 89.765 20.4358 90.0816 20.4475C90.8148 20.4708 91.5514 20.4375 92.2862 20.4691C93.3127 20.5124 93.8293 21.0657 93.8476 22.0889C93.851 22.2822 93.856 22.4755 93.846 22.6671Z" fill="#4D5FA5"/>
<path d="M69.8574 21.5122C69.8208 20.829 69.7775 20.1441 69.7475 19.4608C69.6525 17.2645 69.7041 15.0666 69.6741 12.8686C69.6675 12.422 69.8125 12.2987 70.234 12.3303C70.6756 12.3637 71.1256 12.367 71.5672 12.3303C71.9938 12.2937 72.0721 12.467 72.0704 12.8553C72.0571 17.2312 72.0571 21.6072 72.0721 25.9831C72.0738 26.3831 71.9588 26.448 71.5672 26.508C70.2474 26.708 69.5542 26.2347 68.9559 24.98C67.6161 22.1671 66.1281 19.4159 64.3783 16.8229C64.2767 16.673 64.2284 16.4663 64.09 16.4213C64.09 17.6295 64.0517 18.8509 64.0984 20.0691C64.1767 22.0738 64.1084 24.0784 64.1484 26.0831C64.155 26.428 64.0234 26.5164 63.7101 26.4914C63.0619 26.4397 62.2137 26.7613 61.8221 26.3597C61.5088 26.0381 61.7254 25.1916 61.7238 24.5783C61.7204 20.684 61.7304 16.7896 61.7104 12.8952C61.7088 12.432 61.8604 12.382 62.2853 12.3153C63.6251 12.1104 64.4167 12.667 65.1432 13.7734C66.8013 16.288 68.4327 18.8076 69.8574 21.5122Z" fill="#4D5FA5"/>
<path d="M119.739 15.969C119.489 14.5926 118.751 13.4661 117.484 12.7646C116.248 12.0797 114.898 11.9897 113.543 12.1997C111.292 12.5463 110.044 13.7727 109.506 16.0007C109.234 17.1222 109.344 18.2603 109.326 19.3918C109.326 20.125 109.282 20.8599 109.334 21.5881C109.506 24.0427 110.619 26.4007 113.982 26.6706C116.889 26.9039 119.256 25.7541 119.787 22.5213C120.142 20.3517 120.137 18.1404 119.739 15.969ZM117.229 22.3413C116.896 23.6778 116.101 24.306 114.7 24.3343C113.26 24.3643 112.435 23.7678 112.057 22.4147C111.995 22.193 111.927 21.9647 111.92 21.7381C111.874 20.0834 111.742 18.422 111.982 16.7789C112.278 14.7559 114.293 13.8111 116.096 14.8109C116.961 15.2908 117.256 16.1323 117.324 17.0405C117.383 17.8254 117.336 18.6186 117.336 19.4085C117.343 20.3867 117.471 21.3732 117.229 22.3413Z" fill="#4D5FA5"/>
<path d="M58.3612 19.4395C58.3612 18.5913 58.4062 17.7415 58.3512 16.8983C58.2762 15.7651 57.918 14.7103 57.1864 13.8154C56.0716 12.4556 54.5602 12.0874 52.8855 12.1257C50.0726 12.189 48.3295 13.6155 47.9046 16.375C47.6096 18.283 47.6346 20.2327 47.8629 22.1374C48.2079 25.0019 49.671 26.3967 52.4689 26.66C55.3617 26.935 57.6663 25.7168 58.2712 22.4923C58.4612 21.4792 58.3796 20.4577 58.3612 19.4395ZM55.6967 22.3007C55.3884 23.6272 54.5852 24.2854 53.1954 24.3337C51.7606 24.3837 50.9024 23.7821 50.5175 22.4557C50.3892 22.0091 50.3259 21.5525 50.3392 21.0859C50.3792 19.6645 50.2009 18.2297 50.4275 16.8199C50.7008 15.1202 51.6673 14.372 53.2937 14.4653C54.7851 14.5503 55.6767 15.4668 55.7933 17.1132C55.8483 17.8798 55.8033 18.653 55.8033 19.4228C55.795 20.3827 55.9183 21.3475 55.6967 22.3007Z" fill="#4D5FA5"/>
<path d="M145 26.4868C144.015 26.4868 143.13 26.4702 142.248 26.4952C141.9 26.5052 141.842 26.2485 141.725 26.0486C140.722 24.3155 139.729 22.5775 138.732 20.8411C138.637 20.6761 138.577 20.4861 138.374 20.3562C137.962 20.8078 137.559 21.276 137.126 21.7126C136.933 21.9076 136.946 22.1209 136.946 22.3492C136.946 23.5823 136.931 24.8171 136.954 26.0486C136.961 26.4118 136.851 26.5135 136.498 26.4952C135.938 26.4668 135.376 26.4735 134.816 26.4935C134.516 26.5035 134.38 26.4069 134.421 26.1019C134.43 26.0452 134.423 25.9869 134.423 25.9286C134.423 21.5926 134.428 17.2567 134.415 12.9207C134.413 12.4858 134.498 12.2841 134.983 12.3308C135.443 12.3741 135.913 12.3675 136.373 12.3325C136.813 12.2991 136.966 12.4191 136.958 12.8924C136.928 14.7038 136.946 16.5151 136.946 18.3265C136.946 18.5131 136.946 18.6981 136.946 19.068C137.439 18.4731 137.826 18.0099 138.207 17.5416C139.431 16.0452 140.51 14.4521 141.387 12.7291C141.525 12.4591 141.674 12.3175 142.002 12.3325C142.6 12.3591 143.2 12.3525 143.8 12.3358C144.175 12.3258 144.336 12.3508 144.106 12.7891C143.092 14.7204 141.965 16.5784 140.587 18.2748C140.354 18.5615 140.332 18.7464 140.529 19.0664C142.008 21.4943 143.468 23.9406 145 26.4868Z" fill="#4D5FA5"/>
<path d="M75.9967 19.3896C75.9967 17.2316 76.0067 15.0737 75.9884 12.9157C75.9851 12.4941 76.0517 12.3158 76.5433 12.3224C78.8629 12.3508 81.1826 12.3441 83.5022 12.3274C83.8971 12.3241 84.0638 12.4141 84.0204 12.8324C83.9588 13.4389 84.2771 14.2538 83.8904 14.6004C83.5538 14.902 82.7523 14.6954 82.1574 14.6987C81.1142 14.7054 80.0694 14.7237 79.0262 14.6887C78.573 14.6737 78.468 14.8337 78.483 15.2503C78.5113 16.0385 78.513 16.8317 78.483 17.6199C78.4663 18.0415 78.6296 18.1348 79.0196 18.1298C80.2944 18.1098 81.5708 18.1382 82.8473 18.1132C83.2622 18.1048 83.4539 18.1915 83.4105 18.6497C83.3705 19.0697 83.3672 19.4996 83.4105 19.9195C83.4638 20.4295 83.2439 20.5211 82.7856 20.5111C81.5292 20.4828 80.2727 20.5144 79.0162 20.4928C78.6213 20.4861 78.4697 20.5878 78.483 21.006C78.5113 21.8726 78.5113 22.7407 78.483 23.6073C78.4697 24.0039 78.618 24.0872 78.9846 24.0822C80.551 24.0639 82.1157 24.0939 83.6821 24.0622C84.1571 24.0522 84.2804 24.2022 84.2471 24.6454C84.2104 25.1237 84.2237 25.6086 84.2437 26.0902C84.2554 26.3818 84.1771 26.4935 83.8604 26.4935C81.3675 26.4818 78.8729 26.4785 76.38 26.4951C76.0017 26.4985 75.9934 26.3218 75.9934 26.0402C76.0001 23.8222 75.9967 21.6059 75.9967 19.3896Z" fill="#4D5FA5"/>
<path d="M122.674 19.3953C122.657 18.0688 122.562 16.739 123.006 15.4459C123.696 13.4379 125.302 12.2264 127.423 12.1298C128.76 12.0698 130.031 12.3231 131.273 12.7997C131.628 12.9363 131.694 13.0863 131.549 13.4312C131.324 13.9612 131.303 14.7094 130.918 15.0027C130.498 15.3209 129.895 14.7127 129.335 14.6394C129.048 14.6011 128.77 14.5077 128.483 14.4761C126.687 14.2794 125.545 15.0943 125.295 16.954C125.08 18.5554 125.075 20.1985 125.294 21.7982C125.577 23.8829 126.895 24.6911 129.011 24.2412C129.575 24.1212 130.126 23.9345 130.673 23.7462C130.936 23.6546 131.086 23.6329 131.183 23.9562C131.338 24.4711 131.538 24.9727 131.724 25.4776C131.791 25.6576 131.809 25.7976 131.586 25.8876C129.715 26.6374 127.797 27.064 125.834 26.3458C123.726 25.5759 122.901 23.8429 122.689 21.7599C122.607 20.9834 122.674 20.1868 122.674 19.3953Z" fill="#4D5FA5"/>
<path d="M101.922 18.233C101.922 19.9477 101.945 21.6641 101.909 23.3788C101.897 23.9187 102.01 24.1071 102.594 24.0887C104.1 24.0437 105.61 24.0854 107.118 24.0654C107.498 24.0604 107.629 24.167 107.606 24.552C107.574 25.0502 107.573 25.5551 107.606 26.0534C107.633 26.435 107.473 26.4917 107.138 26.49C104.722 26.4783 102.304 26.4767 99.8874 26.49C99.5408 26.4917 99.4241 26.415 99.4258 26.0467C99.4391 21.6341 99.4391 17.2198 99.4258 12.8072C99.4241 12.4239 99.5408 12.3056 99.9174 12.3273C100.419 12.3556 100.924 12.3606 101.424 12.3256C101.849 12.2956 101.934 12.4656 101.93 12.8539C101.912 14.6486 101.922 16.4416 101.922 18.233Z" fill="#4D5FA5"/>
<path d="M29.7619 18.5244C29.2203 18.5244 28.6771 18.4977 28.1372 18.5327C27.7406 18.5594 27.7256 18.3611 27.6939 18.0561C27.4223 15.3449 25.5426 13.3535 22.8481 12.902C20.4701 12.5037 17.9455 13.8318 16.9107 16.0264C15.8092 18.3644 16.3558 21.1206 18.2288 22.7354C19.197 23.5702 20.3101 24.0668 21.5833 24.1551C21.9782 24.1818 22.0532 24.3201 22.0465 24.6734C22.0265 25.6949 22.0165 26.718 22.0498 27.7379C22.0632 28.1678 21.9049 28.2511 21.5199 28.2311C18.5421 28.0695 16.0991 26.8247 14.3094 24.4751C11.7065 21.059 11.4882 16.9663 13.7595 13.3335C15.5792 10.4207 18.2988 8.9226 21.7666 8.77929C26.0909 8.60099 30.1469 11.4938 31.4067 15.7465C31.6366 16.5247 31.7733 17.3196 31.7783 18.1361C31.7799 18.4377 31.6933 18.5427 31.385 18.531C30.8468 18.5094 30.3035 18.5244 29.7619 18.5244Z" fill="white"/>
<path d="M23.6585 18.5023C24.0834 18.5023 24.5083 18.5256 24.9299 18.4956C25.3015 18.4673 25.3849 18.6156 25.3749 18.9588C25.3532 19.7854 25.3532 20.6119 25.3749 21.4384C25.3849 21.7984 25.2999 21.96 24.8999 21.9484C24.0517 21.9234 23.2035 21.9267 22.3553 21.9467C22.0137 21.955 21.8754 21.8634 21.8854 21.4968C21.9088 20.6519 21.9154 19.8054 21.8838 18.9605C21.8688 18.5539 22.0321 18.4773 22.3853 18.4989C22.8086 18.5206 23.2352 18.5023 23.6585 18.5023Z" fill="#90C96A"/>
</svg>
